<svg xmlns="http://www.w3.org/2000/svg" width="200" height="244" viewBox="0 0 200 244">
    <defs>
        <linearGradient id="a" x1="50%" x2="50%" y1="0%" y2="100%">
            <stop offset="0%" stop-color="#00C9E4"/>
            <stop offset="100%" stop-color="#0099C4"/>
        </linearGradient>
    </defs>
    <path fill="url(#a)" fill-rule="evenodd" d="M205.386 41.736c-1.8-.16-3.667-.143-5.543.042a.288.288 0 0 0-.102-.107c-3.492-2.13-5.406-5.768-7.295-9.266-2.258-4.183-3.728-8.686-2.182-13.396 1.28-3.898 4.723-7.203 8.851-7.816 1.307-.194 2.815-.097 3.668 1.062 1.095 1.488.041 2.766-1.242 3.546-1.616.983-3.642 1.175-5.432.612 1.401.093 2.917.295 4.026-.509.854-.619 1.523-1.91.647-2.802-.947-.967-2.919-.774-4.078-.428-1.534.458-2.867 1.504-3.837 2.759-5.45 7.054 2.12 16.768 7.482 21.329a33.141 33.141 0 0 0 10.1 5.868 30.692 30.692 0 0 0-5.063-.894zm-9.644.713l-.003-.004c-3.56-3.809-6.5-8.125-7.989-13.176-1.272-4.313-1.501-9.356.798-13.376 1.233-2.156 3.15-3.747 5.367-4.82 2.45-1.185 5.849-2.263 8.521-1.278 3.283 1.21 3.844 5.096.88 7.063-1.948 1.293-4.257.975-6.37.225 2.463.505 5.35-.056 6.664-2.299.724-1.234.177-2.766-.912-3.588-1.36-1.027-3.257-.852-4.804-.427-3.579.983-6.475 3.727-7.881 7.132-1.768 4.282-1.044 8.832.914 12.902 1.878 3.903 4.2 8.69 8.023 11.075a31.759 31.759 0 0 0-3.208.571zm-3.194.928a.299.299 0 0 0-.09-.217c-3.191-3.319-5.066-7.565-5.937-12.055-.874-4.505-1.15-9.889.3-14.295 1.39-4.231 5.185-7.43 9.48-8.432 3.935-.917 10.493.411 10.78 5.457.162 2.843-2.461 5.205-5.153 5.483-2.227.23-4.334-.714-6.008-2.132 3.37 1.453 7.916 1.87 9.673-2.081.684-1.539.329-3.254-.808-4.476-1.502-1.614-3.747-2.018-5.857-1.773-4.472.519-9.036 2.986-11.167 7.061-1.988 3.802-1.94 8.387-.932 12.466 1.308 5.29 4.31 10.443 8.235 14.234-.849.218-1.69.47-2.516.76zm-5.24 2.453c-1.48-5.834-2.496-11.72-2.75-17.745-.226-5.362-.477-11.455 2.632-16.1 2.83-4.23 7.9-6.93 13.024-6.195 4.96.71 8.903 5.105 7.741 10.273-.657 2.924-3.178 4.967-6.166 5.1-2.655.12-5.072-1.472-6.263-3.765 3.133 2.801 8.019 3.747 10.974.005 3.006-3.806-.146-8.083-4.027-9.443-4.59-1.607-9.92.282-13.213 3.664-3.962 4.07-4.293 10.005-3.92 15.39.42 6.08 2.359 12.112 6.649 16.569a27.66 27.66 0 0 0-4.68 2.247zm-3.588 2.66c1.17-4.921 1.128-10.21.223-15.093.089-.04.157-.129.132-.251-1.225-5.915-2.3-12.094-1.16-18.112.522-2.76 1.584-5.29 3.74-7.164 2.122-1.842 4.893-3.356 7.564-4.207 4.637-1.478 9.612.006 12.768 3.713 3.186 3.743 3.715 9.88.08 13.546-1.862 1.878-4.698 2.58-7.233 1.82-2.334-.7-3.468-2.379-4.161-4.383 2.139 3.384 6.78 4.612 10.327 1.955 3.847-2.882 3.5-8.868.42-12.175-3.718-3.992-10.186-3.863-14.648-1.307-5.354 3.067-7.478 8.574-7.78 14.492-.424 8.296.495 16.847 2.79 24.835a23.168 23.168 0 0 0-3.062 2.331zm-1.281 1.262l-.07.073c-.046.05-.038.12-.005.17-.164.538-.34 1.071-.536 1.594-.14.107-.28.214-.419.323-.142.111.043.349.193.25l.002-.001c-.23.568-.476 1.13-.747 1.676l-.123.079c-.096.063-.093.172-.041.244-1.764 3.416-4.368 6.36-7.953 8.474-6.647 3.92-16.053 2.721-20.023-4.455-1.797-3.248-1.774-7.43.314-10.55 2.16-3.227 6.215-4.284 9.63-2.383 1.076.599 1.924 1.446 2.476 2.488-1.538-1.755-4.019-2.576-6.36-2.114-3.144.62-5.357 3.585-5.776 6.655-.463 3.397 1.32 6.72 3.982 8.742 3.251 2.47 7.653 2.88 11.526 1.912 7.946-1.986 12.827-9.272 13.785-17.111.584-4.782-.2-9.627-1.586-14.205-1.244-4.107-2.86-8.227-5.561-11.606-4.754-5.947-12.332-9.363-19.886-9.514-7.91-.16-15.613 3.313-21.3 8.708-12.42 11.78-15.337 33.19-6.002 47.61 4.684 7.237 11.368 12.79 16.837 19.377 5.473 6.593 9.921 15.657 5.806 24.107a12.668 12.668 0 0 1-2.776 3.756c2.871-5.38 2.638-12.222-.214-17.7-5.3-13.696-19.08-22.004-25.025-35.394-2.583-5.817-3.43-12.327-2.694-18.642a.328.328 0 0 0 .082-.426l-.025-.047a37.77 37.77 0 0 1 1.433-6.511c2.45-7.768 7.542-14.536 14.103-19.316 6.586-4.798 15.045-8.093 23.282-7.633 7.643.427 14.165 4.91 18.44 11.097 5.546 8.03 8.154 20.32 5.231 30.273zm-11.29 18.608c-.667 2.81-.292 5.792 1.509 8.075.697 2.582 2.153 5.211 4.308 6.822a12.038 12.038 0 0 1-2.412-1.076c-.668-2.43-1.509-4.828-2.777-7.009a18.355 18.355 0 0 0-1.128-1.709.147.147 0 0 0-.01-.054c-.664-1.661-.888-3.465-.527-5.228.338-1.657 1.194-2.83 2.143-4.145.265-.136.528-.276.788-.425-.947 1.507-1.562 3.353-1.893 4.749zm6.253-6.501c6.01-5.973 15.48-6.33 22.657-2.298 3.556 1.998 6.477 5.011 7.911 8.872 1.32 3.557 1.6 7.525 1.274 11.282-.728 8.397-4.918 16.322-11.372 21.715a28.833 28.833 0 0 0-2.77-1.092c3.035-1.402 5.148-4.127 6.879-6.969 2.31-3.795 4.586-7.92 5.409-12.333 1.41-7.57-1.605-15.897-8.335-19.951-6.444-3.882-15.063-3.327-20.347 2.249-4.47 4.718-7.145 15.474.422 18.775 3.785 1.651 8.292.435 10.724-2.895 1.863-2.551 2.434-6.387.511-8.927 3.623 2.43 1.772 8.58-1.012 11.018-2.126 1.862-5.327 2.955-8.246 2.618a.243.243 0 0 0-.215-.108c-.17 0-.339-.002-.506-.006a7.368 7.368 0 0 1-2.817-1.195c-6.827-4.836-5.517-15.438-.167-20.755zm-11.956-12.73c-2.43.03-5.16.366-6.468 2.689-1.105 1.959-.132 4.055 1.584 5.246 4.73 3.284 11.416.161 14.655-3.793 4.133-5.046 4.39-12.222 2.32-18.178-2.086-6.004-6.352-12.152-11.666-15.722-5.348-3.592-12.186-3.883-18.259-2.218-3.178.87-6.314 2.277-8.998 4.2-2.71 1.941-4.59 4.543-6.057 7.506-3.159 6.376-5.568 12.973-4.851 20.19.692 6.965 3.638 13.453 7.646 19.123 2.304 3.258 4.938 6.271 7.72 9.126 2.909 2.983 5.96 5.765 8.273 9.266a34.808 34.808 0 0 1 4.756 10.868c.823 3.353 1.942 8.43-1.238 10.915-.232.182-.072.461.157.524-.392.272-.784.544-1.17.824 2.522-4.854 2.1-10.762.028-15.76-2.635-6.354-7.68-11.286-12.326-16.192-4.79-5.058-9.468-10.444-12.49-16.782-3.424-7.178-3.577-14.691-1.86-22.365.865-3.862 1.869-7.863 3.774-11.358 1.664-3.052 4.088-5.646 6.884-7.691 5.82-4.257 13.555-6.772 20.744-5.39 14.069 2.701 23.975 18.542 21.058 32.473-1.516 7.24-7.662 13.69-15.474 13.296-3.53-.177-8.216-2.378-8.221-6.496-.003-2.262 1.665-4.357 3.777-5.062 1.91-.636 3.957-.233 5.679.72l.023.04zM151.49 58.09a14.475 14.475 0 0 1-.67-.826c.191.17.4.325.626.463.104.226.213.45.33.67-.095-.103-.193-.202-.286-.307zm17.884 23.224c-1.085-3.492-2.793-6.599-5.327-9.242-2.176-2.27-4.725-4.147-7.267-5.981-5.608-4.045-11.897-8.332-13.49-15.538-1.73-7.816 2.73-16.067 10.972-17.31 4.235-.64 8.443.945 10.93 4.49a12.575 12.575 0 0 1 2.255 6.858c-.405-4.195-3.632-8.08-7.88-8.988-6.291-1.344-12.482 3.052-13.996 9.142-1.738 6.997 2.052 13.107 7.334 17.344 2.774 2.226 5.808 4.1 8.602 6.298 3.042 2.394 5.65 5.254 7.661 8.572 3.953 6.519 8.306 20.6-.945 24.806 4.546-5.645 3.172-13.946 1.15-20.451zm-2.456.889A36.884 36.884 0 0 0 160.4 72.2c-2.766-3.036-6.047-5.355-9.41-7.668-3.576-2.46-6.976-5.109-9.106-8.978-2.002-3.637-2.895-7.966-2.253-12.088 1.192-7.657 8.254-13.902 16.122-13.537 4.585.212 8.707 2.975 11.086 6.838 1.15 1.866 1.912 3.987 2.117 6.175.2 2.14-.004 5.002-1.955 6.273 2.62-5.862-.316-13.353-6.237-15.873-6.337-2.698-14.095.639-17.058 6.706-3.257 6.672-1.158 14.336 3.78 19.521 4.96 5.208 11.743 8.27 16.57 13.621 3.552 3.938 5.117 9.077 6.032 14.213.95 5.334.546 11.311-3.661 15.208-.006.005-.01.012-.015.017-.27.112-.54.222-.806.338 4.966-5.725 4.229-14.105 1.312-20.763zm-2.356 2.59c-1.83-3.994-4.218-7.807-6.965-11.233-2.746-3.424-5.964-6.153-9.53-8.678-3.845-2.724-7.08-5.867-9.058-10.217-1.899-4.173-2.39-8.913-1.229-13.36 2.294-8.788 10.987-15.194 20.164-13.292 4.484.928 8.366 3.92 10.653 7.86 1.166 2.009 1.913 4.266 2.095 6.586.193 2.465-.434 5.44-2.64 6.57 1.888-1.785 1.817-5.25 1.341-7.635-.717-3.6-2.824-6.9-5.705-9.154-6.05-4.735-14.442-3.52-19.85 1.611-5.754 5.461-6.452 14.144-3.103 21.092 1.879 3.896 4.969 6.748 8.445 9.223 3.89 2.77 7.824 5.31 11.022 8.915 6.896 7.775 12.907 22.183 3.697 30.582a.366.366 0 0 0-.082.108l-.095.044c4.59-5.079 3.584-13.035.84-19.022zm2.067-35.866a.184.184 0 0 0 .185-.08c-.041.122-.078.245-.123.366-.024.062.005.116.052.149-.061.033-.119.07-.183.1-.054.006-.107.014-.162.018.006-.015.012-.031.015-.048a.47.47 0 0 0 .216-.505zm-7.519 34.138c-2.271-4.104-4.56-8.315-8.015-11.553-3.533-3.312-7.604-5.916-10.536-9.846-5.505-7.378-7.291-17.434-2.85-25.764 4.505-8.452 14.351-12.859 23.52-9.338 4.786 1.838 8.771 5.786 10.58 10.595 1.97 5.236.88 11.32-4.194 14.113a.19.19 0 0 0-.116.01c-.5.207-1.14.317-1.54-.15-.306-.358-.292-.913-.071-1.322l.22-.064c.01-.004.017-.01.027-.016.019.07.075.13.172.136.1.006.194.006.29.006a.168.168 0 0 0 .059.001c4.074-.03 5-5.001 4.59-8.251-.48-3.78-2.345-7.334-5.056-9.992-6.056-5.939-15.581-6.112-22.275-1.081-7.02 5.276-9.237 15.076-6.164 23.128 1.572 4.12 4.304 7.636 7.787 10.315 2.112 1.623 4.377 3.031 6.399 4.772a40.027 40.027 0 0 1 5.116 5.34c3.594 4.495 6.934 9.853 8.465 15.439 1.496 5.457.68 12.04-4.295 15.474a.419.419 0 0 0-.056.048c4.68-6.642 1.56-15.465-2.057-22zm-9.896-28.452c-2.148-4.557-1.982-10.152 2.21-13.699 2.733-2.312 6.926-3.131 10.186-1.471 3.061 1.56 4.844 4.913 4.616 8.288-.046-.104-.097-.203-.148-.304-.296-2.732-2.5-4.856-4.981-5.92-2.838-1.218-5.787-.197-8.064 1.705-2.227 1.86-3.737 4.586-4.097 7.47-.155 1.242-.101 2.654.278 3.93zm6.228 27.165c-5.954-8.382-14.518-14.707-19.334-23.929-2.654-5.083-3.7-10.61-2.46-16.259 1.065-4.848 3.241-9.59 6.645-13.243 3.28-3.522 7.675-5.767 12.521-5.91 4.613-.137 9.195 1.47 12.916 4.159 4.642 3.355 8.282 8.768 8.511 14.617.11 2.796-.657 5.59-2.269 7.886-1.283 1.829-5.242 5.643-7.682 3.588a.148.148 0 0 0-.118-.036 1.388 1.388 0 0 1-.086-1.258c.225-.515.667-.888 1.149-1.205-.122.411-.069.87.21 1.255.439.606 1.442.868 2.063.421 3.782-1.363 5.877-5.415 5.94-9.309.074-4.465-2.061-8.779-5.074-11.973-6.32-6.701-16.994-7.876-24.585-2.621-7.074 4.896-10.391 13.792-8.994 22.176.762 4.572 2.796 8.898 5.654 12.529 3.208 4.074 7.692 6.7 11.244 10.413 2.13 2.226 3.688 4.885 5.223 7.536 1.594 2.755 3.2 5.53 4.354 8.506 2.124 5.47 2.528 12.177-1.661 16.804a.369.369 0 0 0-.05.07l-.032.018c3.875-7.916.783-17.382-4.085-24.235zm3.047 12.314c-1.642-5.059-4.703-9.497-8.072-13.553-7.242-8.716-17.123-16.711-19.36-28.424-1.231-6.446.332-13.387 2.632-19.43 2.02-5.31 5.806-9.454 11.014-11.773 10.186-4.537 21.783-.31 27.793 8.83 3.63 5.52 5.323 13.278 1.912 19.308-1.498 2.647-3.956 4.858-6.887 5.767-1.464.453-3.467.801-4.818-.148-1.594-1.118-.6-3.08.686-3.886.185-.116.381-.218.583-.312-.365.38-.61.847-.613 1.428-.003.855.744 2.138 1.739 1.725 1.08.397 2.4-.025 3.454-.557 2.008-1.013 3.632-2.74 4.714-4.694 2.418-4.362 2.002-9.51-.072-13.918-4.019-8.543-14.01-14.229-23.418-12.36-9.882 1.962-15.988 12.23-17.2 21.608-1.505 11.64 6.71 20.976 14.086 28.86 4.446 4.754 9.095 9.647 11.733 15.692 2.541 5.823 3.244 12.768-.003 18.43l-.15.09c1.95-3.892 1.576-8.586.247-12.683zm2.75-40.592c.32 2.202 3.023 2.552 4.792 2.305 5.488-.764 9.535-5.663 10.533-10.908 2.184-11.48-6.929-23.028-17.75-25.86-5.239-1.37-10.822-.68-15.621 1.816-5.096 2.65-8.548 7.015-10.444 12.39-2.261 6.409-3.738 13.524-2.104 20.253 1.5 6.176 5.246 11.516 9.294 16.295 4.837 5.71 10.41 10.847 14.418 17.22 3.638 5.784 6.777 14.172 2.726 20.487-.383.245-.763.493-1.14.745 3.113-3.299 1.32-9.62.122-13.343-1.816-5.65-5.036-10.542-9.193-14.737-9.087-9.172-18.207-19.523-18.639-33.17-.212-6.72 2.38-13.336 5.597-19.142 3.257-5.875 9.422-9.192 15.848-10.529 6.4-1.33 13.04-.172 18.026 4.228 4.653 4.106 8.509 10.027 9.906 16.105 1.622 7.059-.486 15.299-7.348 18.747-2.95 1.482-7.23 2.114-9.871-.352-1.441-1.346-1.605-3.336-.125-4.764 1.128-1.089 2.677-1.422 4.216-1.552-1.782.547-3.551 1.647-3.243 3.766zm32.988 21.901c-.227 2.691-2.053 5.026-3.94 6.813a19.606 19.606 0 0 1-6.375 4.05c-1.021.395-2.078.701-3.153.906-1.327.254-3.26.657-4.484-.105-.227-.14-.43.043-.447.247-.27-1.209-.572-2.387-.848-3.505a73.798 73.798 0 0 0-.265-1.039 9.562 9.562 0 0 0 4.228 1.58c.172.063.346.124.523.176 4.353 1.275 9.773-.812 12.223-4.593 1.858-2.869 2.267-8.07-.923-10.023 2.285.678 3.66 3.138 3.461 5.493zm-4.175-5.85a5.162 5.162 0 0 0-.468-.164l-.015-.059.02-.092c2.816.24 6.218.835 6.911 4.064.745 3.47-2.04 6.654-3.983 9.209-4.079 5.36-8.88 9.665-15.713 10.744a.269.269 0 0 0-.177.106c-.004-1.945-.337-3.942-.76-5.866a.329.329 0 0 0 .097.104c1.14.794 2.653.568 3.96.396a18.328 18.328 0 0 0 4.388-1.153 20.32 20.32 0 0 0 7.619-5.321c1.786-2.005 3.321-4.69 2.894-7.476-.367-2.398-2.123-4.45-4.612-4.619-.085-.006-.14.055-.161.127zm13.6 14.53c2.804-6.731 3.09-14.468-2.665-19.736-4.98-4.56-12.244-5.112-17.892-1.448-2.756 1.788-4.995 4.444-6.081 7.566-.964 2.77-.97 6.31 1.515 8.292 2.398 1.912 6.128 1.701 8.451-.22 2.403-1.986 3.221-5.276 2.773-8.28 2.16 2.76 1.244 6.96-1.13 9.398-2.702 2.773-7.295 3.322-10.506 1.093-3.127-2.171-3.498-6.63-2.689-10.055.756-3.198 2.63-6.112 5.166-8.19 5.372-4.4 13.198-4.057 18.802-.269 5.823 3.935 8.56 11.574 7.357 18.396-.736 4.174-2.815 7.994-4.937 11.609-1.883 3.205-4.182 6.459-7.8 7.76a30.57 30.57 0 0 0-3.39-.785c6.416-2.498 10.473-9 13.027-15.132zm-3.751 3.047c3.047-4.973 5.46-11.728 3.108-17.447-2.333-5.673-8.97-7.968-14.63-6.429-4.384 1.193-12.668 6.556-9.224 12.132 1.346 2.18 4.303 2.485 6.462 1.429 2.238-1.095 3.245-3.312 3.662-5.624.06 2.423-.657 4.857-2.498 6.548-2.13 1.955-5.9 2.235-8.08.197-2.627-2.453-1.598-6.676-.037-9.41 1.447-2.534 3.687-4.59 6.297-5.884 5.591-2.768 12.173-1.408 16.392 3.143 4.886 5.27 4.093 12.538 1.406 18.68-2.672 6.108-6.967 12.48-13.67 14.469a.403.403 0 0 0-.092.04 33.377 33.377 0 0 0-1.454-.14c5.071-2.705 9.353-6.798 12.358-11.704zm-6.792 3.962c3.82-4.32 8.022-9.749 8.352-15.731.288-5.213-2.87-9.801-8.205-10.42-2.498-.29-5.055.229-7.332 1.265-2.038.927-4.487 2.55-4.854 4.964-.372 2.45 1.955 3.948 4.177 3.573 1.54-.26 2.585-1.275 3.29-2.543-.6 1.684-1.641 3.21-3.249 3.957-2.776 1.289-6.134-.157-6.065-3.497.063-3.042 2.833-5.403 5.216-6.874 2.355-1.452 5.096-2.337 7.878-2.271 5.698.133 10.351 4.29 10.846 10.004.444 5.114-1.822 10.248-4.635 14.392-3.144 4.634-7.472 8.308-12.444 10.844l-.003.002a41.074 41.074 0 0 0-4.06.08c4.379-1.31 8.04-4.298 11.088-7.745zm3.582-19.39c-1.427-2.55-4.588-2.99-7.254-2.838-.091-.175-.337-.131-.4.032a.152.152 0 0 0-.041.275.224.224 0 0 0-.073.112.14.14 0 0 0-.107.07c-.342.591-.713 1.32-1.238 1.768-1.385 1.178-3.157-.019-1.727-1.44.735-.728 2.033-1.173 2.987-1.469 2.088-.645 4.508-.771 6.508.238 5.246 2.647 3.292 9.337.766 13.152-4.888 7.378-11.586 14.787-20.482 16.87.674-1.473.956-3.065.993-4.7a.298.298 0 0 0 .271.154c7.768-.286 13.548-7.1 17.71-12.913 1.857-2.594 3.866-6.133 2.087-9.31zm-17.906 27.477c-1.333.19-2.66.438-3.974.742.154-.224.294-.454.426-.685 4.642-.63 8.743-3.162 12.176-6.254 3.752-3.377 7.276-7.538 9.898-11.862 2.217-3.656 3.46-9.183-.249-12.39-3.014-2.608-7.701-1.934-10.911-.07-1.196.694-2.655 2.354-.917 3.394 1.91 1.144 3.265-.992 3.84-2.517l.014.012c-.696 2.142-2.05 4.488-4.563 4.49-1.296.001-2.535-.747-2.7-2.104-.183-1.51.997-2.833 2.103-3.71 3.276-2.6 8.592-3.59 12.39-1.61 4.482 2.337 5.167 8.031 3.68 12.406-1.518 4.47-4.745 8.604-7.9 12.052-3.461 3.785-7.775 7.008-12.987 7.675-.236.03-.346.248-.326.431zm-7.218-23.006c1.922 3.62 2.822 7.737 3.65 11.722.82 3.941 1.395 8.35-1.097 11.824-.098.137-.073.27.01.365a51.94 51.94 0 0 0-3.438.973c4.27-3.612 4.078-10.541 2.772-15.688-1.641-6.464-5.324-12.358-10.426-16.648-5.005-4.208-11.46-7.16-15.001-12.884-3.921-6.34-2.472-15.515 4.712-18.767 3.647-1.651 8.098-1.365 11.093 1.452 2.707 2.547 3.864 6.526 2.7 10.077-.01-.033-.023-.065-.033-.098a.192.192 0 0 0 .05-.094c1.135-5.111-3.001-10.06-8.076-10.48-5.85-.482-10.64 4.164-11.301 9.804-.65 5.547 2.553 10.074 6.574 13.47a14.66 14.66 0 0 0 4.936 3.55c4.895 3.17 10.032 6.067 12.875 11.422zm-3.16-5.251c-.17-.167-.35-.324-.524-.486a.085.085 0 0 0-.014-.052 5.071 5.071 0 0 1-.83-2.496c-.046-.783.209-1.442.362-2.173.545-.101 1.086-.229 1.62-.385-1.297 1.515-1.326 3.76-.613 5.592zm.842-5.658a17.935 17.935 0 0 0 1.675-.606c-1.662 2.094-1.94 5.307-1.07 7.805a21.608 21.608 0 0 0-.766-.853c-.904-2.097-.496-3.96.299-6.097.042-.113-.038-.213-.138-.25zm-2.023 4.57c-.305-.265-.62-.522-.937-.774a5.147 5.147 0 0 1-.355-1.11c-.11-.573-.041-1.123-.066-1.697-.011-.275-.406-.34-.485-.066-.215.755-.076 1.6.235 2.357-1.38-1.04-2.83-1.99-4.292-2.922 1.825.415 3.661.458 5.452.197-.61 1.226-.261 2.837.448 4.016zm-16.32-13.515c-2.72-3.462-1.113-8.938 1.823-11.903 1.898-1.916 4.704-3.371 7.434-2.573 2.178.637 4.435 2.413 5.326 4.615-1.266-1.725-3.311-2.83-5.494-3.11-3.39-.435-6.465 1.358-8.147 4.273-1.66 2.875-1.816 5.927-.943 8.698zm1.534 42.874c-1.522-7.57-7.06-13.57-12.207-18.974-5.375-5.642-11.133-11.298-14.365-18.52-3.486-7.789-3.44-17.168-1.224-25.305 2.13-7.822 6.653-14.925 13.31-19.633 6.3-4.455 14.186-6.631 21.833-5.127 7.53 1.482 14.155 6.158 17.614 13.068 3.847 7.685 6.03 17.435 3.187 25.78-1.472 4.325-4.32 8.142-8.375 10.333-4.338 2.344-10.128 2.887-14.376.031-3.831-2.576-5.67-7.792-2.912-11.832 2.285-3.348 7.192-3.783 9.796-.885-2.292-1.03-5.027-.975-7.078.67-2.138 1.714-2.96 4.654-1.702 7.143 2.858 5.653 10.847 5.424 15.666 2.87 13.643-7.233 10.105-26.91 1.61-36.712-4.769-5.502-11.878-9.091-19.228-8.958-7.277.13-14.954 3.691-19.976 8.93-5.375 5.606-7.393 13.987-8.324 21.494-.979 7.899.986 15.248 5.177 21.949 4.664 7.456 11.284 13.177 16.861 19.881 5.67 6.816 10.316 16.948 4.826 25.265a70.022 70.022 0 0 0-2.974 2.395c2.996-3.806 3.822-9.089 2.861-13.863zm63.925 42.738c-.563 8.246-3.666 16.388-10.165 21.744-.104.086-.21.168-.315.251-.033-.005-.065-.013-.098-.018-.27-.043-.436.208-.41.41-6.131 4.594-14.159 5.711-21.075 2.005-3.647-1.954-6.727-5.05-8.42-8.85-1.887-4.235-2.066-9.74 1.199-13.364 3.14-3.489 8.696-4.68 13.076-3.148 3.126 1.093 5.614 4.185 5.664 7.373-.336-1.48-1.199-2.864-2.422-3.873-2.348-1.936-5.61-2.611-8.575-2.128-2.908.474-5.813 2.09-7.222 4.767-1.729 3.28-.683 7.286.754 10.473 1.533 3.4 4.045 6.073 7.648 7.232 3.53 1.134 7.584 1.179 11.228.666 3.372-.474 6.704-1.634 9.343-3.843 3.02-2.527 4.66-6.245 5.925-9.888 2.558-7.37 3.42-15.442 1.956-23.134-1.555-8.174-5.952-14.969-11.924-20.649-2.744-2.61-5.936-4.927-9.629-5.95-3.86-1.07-8.041-.71-11.948-.08-8.006 1.293-15.6 4.631-22.318 9.125-14.405 9.636-24.28 24.269-32.742 39.09a332.034 332.034 0 0 0-2.479 4.429c.176-.82.331-1.643.463-2.472 3.192-7.018 6.51-13.96 10.726-20.44 2.261-3.477 4.741-6.817 7.458-9.946.075.122.256.17.342.006.16-.305.316-.614.47-.924 2.525-2.82 5.247-5.461 8.186-7.863a65.614 65.614 0 0 1 7.56-5.347c4.427-2.677 9.183-4.802 14.168-6.181 8.217-2.273 17.558-2.733 25.389 1.122 13.942 6.864 19.174 24.938 18.187 39.405zm-1.829 36.82c-.639 2.98-2.25 6.154-4.957 7.747-2.588 1.524-5.662.844-7.537-1.26 1.272 1.064 3.095 1.47 4.765 1.073 3.131-.746 5.262-3.78 6.005-6.756.84-3.366.19-7.135-1.914-9.917-1.421-1.877-3.73-3.547-6.16-3.744a25.297 25.297 0 0 0 1.638-1.196c6.192 1.434 9.466 7.965 8.16 14.052zm-9.987 10.922a20.267 20.267 0 0 1 1.358 3.916c.569 2.41.62 4.816.385 7.263a23.83 23.83 0 0 0-1.58-.168c.742-4.785.108-9.906-2.176-14.211.926.574 1.64 2.403 2.013 3.2zm-.4 10.98a23.867 23.867 0 0 0-2.96.043c.516-.575.9-1.381 1.14-1.92.809-1.812.957-3.821.889-5.78-.07-1.982-.217-4.032-.823-5.93 1.748 4.347 2.478 8.861 1.754 13.586zm-4.02.15c-.014 0-.028.002-.043.004a.1.1 0 0 1-.08-.044c-.15-.204-.537-.12-.52.124-.097.015-.195.027-.293.043-.18.028-.39.053-.613.081 2.414-2.263 3.254-6.198 3.23-9.34-.017-2.253-.428-4.491-.973-6.67-.304-1.216-.733-2.41-1.011-3.63-.149-.652-.28-1.431-.036-2.087 1.18-3.17 3.377.729 2.127 1.824.175-.64-.295-1.219-1.144-1.235-.104-.002-.19.073-.22.168-1.007 3.046 1.26 5.948 1.746 8.884.325 1.961.474 4.087.306 6.072-.09 1.068-.282 2.103-.674 3.101-.101.257-1.331 2.575-1.801 2.704zm-3.317.342a20.098 20.098 0 0 0 2.36-7.856c.292-3.345-.49-6.348-1.342-9.548-.865-3.243-1.4-8.467 2.751-9.73 2.216-.675 4.088.832 4.632 2.96.44 1.722-.316 3.552-1.753 4.22 1.107-1.144 1.342-3.33.477-4.613-1.52-2.252-4.69-.977-5.64 1.075-1.525 3.3.688 7.111 1.365 10.35.501 2.4.68 4.897.201 7.314a12.96 12.96 0 0 1-1.001 3.071c-.323.676-1.14 2.486-2.05 2.757zm.743-7.984a22.087 22.087 0 0 0-.985-5.965c.106-.032.184-.128.136-.268-.975-2.839-2.116-5.686-2.286-8.718-.097-1.729.116-3.314 1.49-4.513 1.103-.96 2.603-1.954 4.025-2.311 3.259-.819 6.632 1.315 7.275 4.618.506 2.59-1.21 5.447-3.629 5.741 1.988-.711 2.79-3.775 1.878-5.83-1.349-3.04-5-3.48-7.245-1.09-3.045 3.246-1.142 8.112-.213 11.776 1.146 4.519.68 9.087-1.214 13.26.552-2.187.825-4.441.768-6.7zm-.962 2.383c-.502 6.656-3.806 13.068-8.824 17.44-6.617 5.765-15.395 6.368-23.748 5.173-9.012-1.29-17.739-4.093-26.296-7.122-17.738-6.28-36.117-14.067-55.264-12.368a83.909 83.909 0 0 0 3.573-1.514c4.441-.117 8.851-.092 13.274.492 4.879.644 9.62 1.861 14.268 3.462.112.039.199 0 .254-.067 6.895 2.611 13.855 5.091 20.802 7.553 7.133 2.528 14.474 4.315 21.836 6.028 6.545 1.523 13.995 3.348 20.644 1.484 5.055-1.416 9.27-4.84 12.254-9.097 3.35-4.782 5.231-10.805 4.74-16.665-.497-5.937-4.11-10.943-9.177-13.924-5.32-3.13-12.709-4.563-18.785-3.265-2.977.635-5.351 2.34-7.557 4.366-2.22 2.04-4.187 4.438-4.93 7.42-1.485 5.969 1.947 12.248 7.946 13.857 5.238 1.403 10.89-1.564 12.552-6.672l.026-.031c-.826 6.438-8.693 10.629-14.637 7.997-3.29-1.457-5.55-4.318-6.664-7.613.18.006.36-.175.246-.386a24.85 24.85 0 0 0-.68-1.183c-.634-2.873-.444-5.946.648-8.64 2.813-6.946 10.23-11.381 17.53-11.833 2.8-.174 5.608.18 8.291.976.054.13.228.187.323.099a26.322 26.322 0 0 1 10.02 5.796c5.072 4.704 7.859 11.298 7.335 18.237zm3.227 10.117c2.47.095 4.912.907 6.992 2.233 4.707 3 6.796 8.487 6.35 13.931-.458 5.607-3.594 11.286-8.56 14.097-5.062 2.865-12.696 1.775-14.632-4.417-.905-2.892.212-6.349 2.85-7.944 1.977-1.197 4.482-.962 6.326.286a5.848 5.848 0 0 0-.302-.063c-3.039-1.038-6.784-.017-8.09 3.225-1.655 4.104 1.27 8.407 5.602 8.502 2.683.06 5.76-.718 8.203-1.789 2.549-1.116 4.378-3.061 5.461-5.62 2.024-4.783 1.202-10.67-2.059-14.714-3.495-4.336-9.802-6.386-15.155-4.752a27.35 27.35 0 0 0 1.138-1.788c1.687-1.023 4.411-1.242 5.876-1.187zm2.253 7.911c3.163 1.712 5.672 4.738 5.781 8.454.123 4.18-2.847 6.761-6.532 8.066-1.948.69-5.73.515-5.606-2.432.06-1.429 1.07-2.246 2.301-2.61-.448.274-.778.698-.867 1.343-.183 1.323.934 2.488 2.16 2.737 3.67.746 7.053-3.668 7.43-6.889.488-4.148-2.475-6.93-6.138-8.137-4.118-1.356-8.634-1.346-12.764-.069a23.444 23.444 0 0 0 2.136-1.942c.124-.128.245-.258.366-.389.017.002.03.009.05.008 3.96-.251 8.117-.07 11.683 1.86zm2.967-.138c3.391 3.032 4.966 8.123 3.498 12.488-1.45 4.31-6.085 7.371-10.63 6.871-2.996-.33-6.086-2.664-4.419-5.997.943-1.886 3.111-2.688 5.133-2.453-1.868.238-3.613 1.457-3.54 3.518.132 3.707 4.747 3.615 7.176 2.61 3.395-1.405 6.004-3.733 6.29-7.58.258-3.466-1.53-6.618-4.223-8.695-3.8-2.932-8.693-3.438-13.343-3.207l.004-.004c4.712-1.571 10.259-.944 14.054 2.449zm-4.228 19.91c4.173-.797 7.745-4.07 8.701-8.237.987-4.298-.627-9.04-3.832-12.018-3.704-3.443-9.11-4.345-13.896-3.07.157-.2.312-.4.464-.604.06.029.133.042.22.02 4.17-1.1 8.554-.595 12.15 1.901 3.706 2.573 5.792 6.98 5.746 11.46-.023 2.3-.618 4.622-1.808 6.596-1.376 2.28-3.531 3.577-6.025 4.346-4.04 1.245-10.279 2.4-11.45-3.127-.71-3.347 1.412-5.651 4.11-6.336-1.461.705-2.59 2.025-2.788 3.862-.49 4.526 4.91 5.877 8.408 5.208zm-1.51-7.465c.406.871 1.58 1.049 2.416.837 3.072-.778 3.32-5.425 2.259-7.79-1.156-2.576-4.173-3.426-6.734-3.769-3.453-.462-7.085-.5-10.58-.029 2.83-1.025 5.808-1.522 8.828-1.327 3.036.196 6.94.942 9.083 3.311 2.246 2.484 1.975 6.324-.056 8.828-1.004 1.24-2.629 2.497-4.274 2.601-1.475.093-3.211-1.194-2.153-2.812.22-.336.651-.51 1.122-.606-.058.226-.037.484.09.756zm.888-.87l.127-.008c.068.04.134.08.2.123.11.142.214.288.31.442.179.283.54.156.608-.093.16.02.312-.166.165-.308l-.024-.022c.351-.585.487-1.132.465-1.638.837-3.031-.494-5.952-3.464-7.41 2.015.442 4.214 1.366 4.96 3.47.408 1.152.437 2.577.206 3.772-.137.706-.39 1.447-.881 1.993a2.76 2.76 0 0 1-1.3.82c-1.054.324-1.51-.059-1.372-1.142zm-11.59-9.2c-.109.01-.216.025-.324.037a.179.179 0 0 0 .141-.145c.244-.021.487-.043.731-.062-.184.054-.367.11-.548.17zm-14.095 3.606a.346.346 0 0 0-.067-.102c.214-.023.427-.053.64-.081a8.658 8.658 0 0 0-.573.183zm-1.322.602a10.75 10.75 0 0 0-2.186 1.622c-.156.1-.316.194-.474.29a.15.15 0 0 0-.198.009c-.112.097-.218.202-.329.302-4.037 2.295-8.757 3.209-13.467 2.625-3.315-.41-6.268-1.691-9.213-3.195-.33-.27-.668-.533-1.015-.785 3.834 1.18 7.667 2.17 11.742 2.17 4.486 0 9.17-.902 13.163-3.004.226-.12.069-.518-.177-.421-5.191 2.037-10.484 3.19-16.088 2.616-5.61-.574-10.734-3.067-16.211-4.221-4.454-.939-9.753-1.054-13.591 1.783-1.367 1.01-2.637 2.59-2.527 4.392.087 1.42 1.158 2.892 2.586 3.203 1.494.325 2.918-.85 3.028-2.353.098-1.343-.9-2.352-2.099-2.521 1.16-.823 3.069-.017 3.528 1.403.477 1.471-.117 3.204-1.187 4.264-2.392 2.37-6.295.585-7.067-2.386-.79-3.036 1.065-5.932 3.626-7.412 2.545-1.47 5.553-1.647 8.42-1.42 5.91.468 11.688 2.136 17.564 2.908 5.747.754 11.784 1.135 17.438-.384a.097.097 0 0 0 .065-.061 36.24 36.24 0 0 0 5.405-.073c-.24.224-.487.437-.736.649zm-8.253 6.201c-3.03.931-5.79.221-8.581-.805.42.06.844.107 1.272.14 3.34.26 6.775-.22 9.919-1.423a13.087 13.087 0 0 0-2.61 2.088zm-2.739 3.674a26.754 26.754 0 0 0-4.994-3.646c2.249.885 4.664 1.416 6.976.804-.74.874-1.4 1.829-1.982 2.842zm-1.667 3.494c-1.749-3.59-5.076-6.74-8.507-9.02.181.062.363.12.545.179 3.441 1.42 6.497 3.272 9.317 5.781.017.016.035.022.054.032-.53.976-1 1.994-1.41 3.028zm-1.06 3.065c-1.197-2.872-2.684-5.58-4.598-8.042-.963-1.24-2.106-2.738-3.424-3.952 1.527 1.125 2.982 2.338 4.324 3.689 1.702 1.714 3.03 3.67 4.584 5.5.017.02.036.032.054.039-.354.919-.666 1.848-.94 2.766zm-13.569-15.506c-.338-.17-.677-.34-1.017-.505l1.048.329a.183.183 0 0 0-.03.176zm2.341 7.852c1.095 3.444 1.075 6.84.874 10.296-.83-.065-1.66-.127-2.486-.2 1.552-6.511.524-14.567-4.726-18.79 3.06 2.056 5.206 5.134 6.338 8.694zm-2.273 10.038a247.756 247.756 0 0 1-3.61-.349c3.169-2.858 3.095-7.45 2.205-11.395-.52-2.307-1.318-4.147-3-5.824-.953-.95-1.985-1.97-3.186-2.604.107.02.212.044.318.065 3.302 1.645 5.757 4.526 7.013 8.017 1.428 3.971 1.112 8.068.26 12.09zm-4.565-.458l-.011.01c-.97-.106-1.937-.217-2.902-.337 1.39-.584 2.573-2.218 3.334-3.287 1.488-2.088 1.747-4.654 1.324-7.134-.639-3.74-2.936-7.458-6.378-9.164 1.836.447 3.311 2.046 4.562 3.382 1.484 1.585 2.15 3.325 2.6 5.418.829 3.849.964 8.498-2.53 11.112zm-4.367-.776c-.154-.007-.25.097-.284.221-2.028-.272-4.05-.577-6.065-.933 4.527-.534 8.46-3.986 9.23-8.595.746-4.453-1.804-8.96-6.081-10.247.323.008.646.025.968.048.01.006.017.013.03.017 3.665 1.408 6.297 4.442 7.365 8.218.566 2.003.74 4.254.034 6.246-.653 1.842-3.056 5.136-5.197 5.025zm-8.258-1.063a123.032 123.032 0 0 1-3.97-.824 17.988 17.988 0 0 0 3.667-.365c5.712-1.163 11.607-6.834 8.998-13.097a7.951 7.951 0 0 0-2.379-3.149c3.174 1.917 4.963 5.624 4.129 9.468-1.054 4.855-5.435 7.537-10.15 7.74a.305.305 0 0 0-.295.227zm9.34-21.343c-5.402-.872-12.124-2.07-16.793 1.632-4.105 3.256-4.7 9.762-.625 13.292 3.842 3.328 9.947 2.33 12.09-2.457 1.125-2.513.643-5.763-2.104-6.936a4.06 4.06 0 0 0-2.557-.219c1.48-.829 3.32-.922 4.905.074 2.745 1.725 2.674 5.14 1.259 7.721-2.47 4.505-8.13 6.473-12.798 4.286-4.774-2.238-6.973-7.719-5.163-12.665 1.893-5.17 7.555-7.33 12.665-7.446 3.334-.076 6.617.557 9.88 1.163a552.35 552.35 0 0 0 8.813 1.566c3.364 1.042 6.768 1.977 10.205 2.713-6.656-.405-13.182-1.66-19.776-2.724zm-12.893 7.532c.019 0 .037.003.056.003-.008.08-.022.16-.026.241-.05.124-.098.249-.138.379-.017.056.02.1.066.117.011.04.041.067.08.08.001.027.002.054.005.081.034.37.559.38.582 0 .016-.264.058-.522.112-.775 1.653.554 2.583 2.809.663 3.812-2.009 1.05-3.64-1.492-3.355-3.217.317-1.924 2.019-3.255 3.806-4.09-.932.846-1.6 1.956-1.776 3.192-.032.007-.065.01-.097.017-.09.02-.07.16.022.16zm-4.5 3.044c.89 4.116 6.565 5.84 8.901 1.919.978-1.64 1.173-4.33-.622-5.526a2.669 2.669 0 0 0-2.418-.258c1.862-1.42 4.652-1.246 5.819 1.29 1.226 2.665-.593 5.778-2.839 7.223-4.614 2.97-10.702-.676-11.035-5.95-.352-5.568 4.41-8.907 9.437-9.398 5.006-.488 10.152.795 15.053 1.648 5.791 1.008 11.684 2.006 17.58 1.734 2.317.42 4.648.736 6.992.924-6.682.668-13.209.44-19.857-.65-6.116-1.005-12.757-3.297-19-2.29-4.455.72-9.1 4.306-8.011 9.334zm-3.103 7.376c-2.148-1.45-3.668-3.752-4.397-6.22-1.495-5.064.693-10.287 4.675-13.552 3.342-2.74 7.502-3.732 11.661-3.505.15.038.3.076.448.119.13.037.236.004.314-.063 1.399.126 2.793.385 4.15.761 1.458.527 2.915 1.05 4.368 1.561 1.475.519 2.96 1.031 4.452 1.533-2.16-.44-4.323-.862-6.493-1.246-3.447-.61-6.985-1.071-10.474-.542-5.755.873-10.966 4.744-11.32 10.922-.318 5.525 3.736 10.418 9.21 11.191 5.244.74 10.978-3.079 11.662-8.499.354-2.803-1.353-5.528-4.16-6.197-1.952-.466-3.854.293-5.087 1.707.998-1.673 2.837-2.797 4.913-2.681 2.81.156 5.039 2.692 5.618 5.313 1.412 6.38-5.208 10.698-10.698 11.185-3.007.267-6.286-.06-8.842-1.787zm-3.967-.534c-3.142-5.273-3.588-12.03.148-17.186 2.66-3.67 7.01-5.793 11.458-5.988-2.754.425-5.399 1.49-7.685 3.31-4.7 3.744-6.96 10.045-4.543 15.735 1.031 2.429 2.675 4.202 4.667 5.387a131.137 131.137 0 0 1-4.045-1.258zm-2.232-.754c-2.333-3.715-3.012-7.79-1.98-12.035a13.3 13.3 0 0 0 1.797-3.144c.219-.544.393-1.101.527-1.667.063-.006.125-.04.148-.107.964-2.677 3.305-4.62 5.795-5.863 2.526-1.261 5.037-1.488 7.803-1.566.022 0 .04-.008.059-.013 1.83.654 3.657 1.318 5.478 1.98-.245-.037-.49-.066-.735-.094a.368.368 0 0 0-.114-.056c-6.089-1.763-13.056.493-16.838 5.633-3.63 4.934-3.927 12.437-.342 17.479-.534-.178-1.067-.362-1.598-.547zm-3.873-9.841a.214.214 0 0 0-.058-.15c.373-.317.73-.652 1.066-1.007-.781 3.673.088 7.725 2.333 10.718-2.632-2.09-3.334-6.474-3.341-9.561zm-1.05 5.444c-.741-1.38-.869-2.718-1.055-4.173a13.14 13.14 0 0 0 1.637-1.086c-.05 2.828.623 6.695 2.768 8.85-1.396-.91-2.555-2.106-3.35-3.591zm-1.19 1.17c-.752-.71-2.859-3.026-2.315-4.272.379-.122.754-.258 1.121-.412.234-.099.463-.207.69-.319-.116 2.646 1.621 5.388 3.74 7.036-1.191-.477-2.3-1.15-3.236-2.034zm.041.947l-.282-.116a12.509 12.509 0 0 1-2.32-1.535c-1.034-.874-1.741-1.953-2.594-2.967.802-.09 1.598-.239 2.374-.46-.41 1.254.961 2.964 1.711 3.81a8.865 8.865 0 0 0 1.733 1.513c-.207-.083-.415-.161-.622-.245zm-7.398-3.267c-.956-.46-1.922-.96-2.764-1.586 1.199.325 2.593.35 3.67.328.28-.006.559-.023.838-.045.505 1.278 1.466 2.397 2.631 3.3-1.47-.639-2.931-1.302-4.375-1.997zm11.487-22.317a.315.315 0 0 0-.224.114 10.666 10.666 0 0 0-3.627-2.807c3.655.859 7.28 1.906 10.881 3.058a26.193 26.193 0 0 0-7.03-.365zm1.321 2.466c-.002 0-.002.002-.003.002a12.045 12.045 0 0 0-1.138-1.844c2.876-.198 5.702.013 8.501.564-2.515-.09-5.057.35-7.36 1.278zm1.129 3.413c-.18-.999-.482-1.97-.89-2.892 3.943-1.355 7.788-1.449 11.773-.505.303.106.607.21.91.317l-.051.002c-4.154-.541-8.309.66-11.742 3.078zm.082.509c2.577-1.798 5.494-2.802 8.536-3.118-1.255.34-2.464.84-3.542 1.435-1.814 1.003-3.986 2.587-4.92 4.605.088-.975.06-1.957-.074-2.922zm-18.228 12.93c2.237 1.208 5.198.839 7.505-.035 2.736-1.038 5.15-2.966 6.715-5.447 3.373-5.35 1.486-12.234-3.614-15.749a12.812 12.812 0 0 0-4.575-1.971 96.47 96.47 0 0 1 3.833.744.259.259 0 0 0 .164.309c6.295 2.358 9.517 9.236 6.816 15.524-.372.866-.837 1.68-1.378 2.434a.273.273 0 0 0-.216.184c-.022.062-.039.126-.06.189a12.659 12.659 0 0 1-3.576 3.152l-.01-.077c-.031-.204-.347-.183-.392 0a5.39 5.39 0 0 0-.073.347c-.464.247-.943.47-1.44.658-1.612.61-3.341.912-5.062.907-1.408-.005-2.769-.477-4.138-.586a5.961 5.961 0 0 1-.499-.583zm-.689-1.262a5.265 5.265 0 0 1-.13-.378v-.002c-.13-1.095-.07-2.185.258-3.276.211-.705.517-1.38.916-2 .218-.356.473-.682.766-.979.704-.84 1.487-.673 2.35.504.326 1.103-.705 2.822-1.315 3.663-.783 1.081-1.797 1.732-2.845 2.468zm6.967-9.608c-.917-1.972-3.167-1.819-4.761-.776-2.062 1.35-3.95 3.719-4.5 6.149-1.243 5.495 3.372 9.983 7.82 12.214 5.974 2.996 12.704 4.91 19.136 6.635 2.324.624 4.674 1.213 7.042 1.747-9.351-1.029-18.697-2.028-27.275-6.311-2.397-1.197-4.885-2.591-6.811-4.48-2.32-2.273-3.124-5.376-2.645-8.549.419-2.777 1.706-5.421 3.538-7.537 1.84-2.124 4.953-4.357 7.844-2.843 3.244 1.7 2.074 6.259.556 8.755a11.454 11.454 0 0 1-5.728 4.758c3.359-1.744 7.6-5.858 5.784-9.762zm-14.15-8.436c-3.513 3.086-5.75 7.387-6.59 11.953a16.506 16.506 0 0 0-.506-1.74c.486-3.715 2.074-6.974 4.776-9.595 1.206-1.17 2.565-2.161 3.996-3.035 1.389-.848 3.328-2.234 5.055-2.398 1.942.16 3.875.394 5.798.695-4.448-.5-9.132 1.136-12.53 4.12zm-6.95 16.8a17.219 17.219 0 0 1-.568 3.535c-1.581 5.835-5.917 10.418-11.455 12.712-5.251 2.176-12.33 2.785-17.358-.32-6.705-4.138-4.86-12.527-2.424-18.676.159-.212.32-.423.488-.628-2.243 4.672-3.085 10.331.655 14.495 3.762 4.189 9.821 4.787 14.921 3.01 4.874-1.697 9.067-5.422 11.053-10.222 2.016-4.872 1.512-10.775-1.657-15.053-2.242-3.027-5.743-4.947-9.418-5.324 1.507-.082 3.014.01 4.503.391 2.592.665 4.943 2.109 6.813 4.011 2.775 2.825 4.27 6.484 4.459 10.289a22.48 22.48 0 0 0-.013 1.78zm-27.29-6.591c.202-.03.405-.056.61-.073-6.008 3.515-5.348 12.86.657 16.051 3.075 1.634 6.944 1.734 10.062.16 3.387-1.708 5.56-5.27 6.1-8.964 1.084-7.421-4.515-13.314-11.015-15.863.044.005.092.001.144-.015.098-.03.198-.053.297-.081 3.493.764 6.983 2.028 9.586 4.494 3.955 3.748 4.254 9.675 2.03 14.436-1.996 4.273-6.056 7.78-10.872 8.19-4.447.378-9.314-1.837-11.245-6.012-2.048-4.425-.216-9.642 3.647-12.323zm5.747-8.938l.169-.04c.08.016.16.03.24.047a.347.347 0 0 0 .133.194c-.18-.07-.361-.136-.542-.201zM46.652 224.2c.734 4.796 4.995 8.156 9.614 8.898 10.632 1.71 19.765-11.467 14.479-20.904-2.226-3.973-6.496-5.991-10.832-7.085 4.03-.629 8.251.807 11.096 3.797 3.432 3.608 4.475 9.116 3.143 13.846-2.585 9.183-15.012 16.466-23.624 10.416-2.463-1.73-4.092-4.383-4.304-7.41-.093-1.323.054-2.629.342-3.91-.057.792-.031 1.585.086 2.352zm25.23-18.456a15.226 15.226 0 0 0-2.828-1.358c-1.405-.5-2.84-.725-4.285-.77a91.913 91.913 0 0 0 6.185-1.307c-.006 1.207.335 2.387.927 3.435zm-.383-3.566a93.328 93.328 0 0 0 2.349-.625c-.546 2.177-.17 4.74 1.12 6.629a16.544 16.544 0 0 0-1.819-1.58c-.928-1.232-1.477-2.728-1.65-4.424zm4.383 6.357c-1.43-2.12-2.057-4.431-1.389-7.127.003-.013 0-.023.002-.035a90.491 90.491 0 0 0 3.245-1.003 9.683 9.683 0 0 0-1.858 8.165zm1.65-2.67c-.47 1.507-.631 3.158-.39 4.721l.02.138a9.91 9.91 0 0 1-.34-.822c.028-.03.037-.08.005-.117l-.078-.097c-1.14-3.333-.418-7.031 2.158-9.707.699-.242 1.395-.49 2.087-.75.52-.05 1.04-.09 1.56-.125-2.342 1.49-4.227 4.208-5.023 6.759zm11.933-6.646c.131-.02.19-.108.194-.206.625.025 1.249.056 1.871.098-1.133.262-2.25.862-3.228 1.357a21.148 21.148 0 0 0-5.014 3.553c-2.244 2.143-4.061 4.965-4.699 8.04-.014-2.96 1.324-5.783 3.298-8.005 1.976-2.225 4.559-4.385 7.578-4.837zm-8.576 5.201c-1.96 2.478-3.02 5.465-2.507 8.555a.114.114 0 0 0-.046.057c.02-.055-.04-.269-.13-.538 0-.005-.003-.01-.005-.015-.181-.541-.48-1.302-.516-1.514a10.522 10.522 0 0 1-.107-2.496 11.015 11.015 0 0 1 1.2-4.187c1.152-2.246 2.918-3.6 4.744-5.232a64.863 64.863 0 0 1 4.588-.083c-2.863.86-5.44 3.204-7.22 5.453zm114.688-54.473c-1.125-5.62-9.882-6.553-14.003-3.024-2.106 1.804-2.773 4.754-2.293 7.41.551 3.057 2.685 5.49 5.296 7.05 6.064 3.621 13.962 3.408 19.092-1.649 4.997-4.925 7.361-12.392 8.09-19.215.812-7.613-.125-15.248-3.924-22.002-3.301-5.87-8.623-10.523-14.863-13.038-14.346-5.783-29.745 3.217-40.418 12.499-6.812 5.924-12.57 12.952-17.631 20.407-4.828 7.112-9.224 14.606-13.232 22.233a49.38 49.38 0 0 0 1.352-4.463c.005-.007.011-.01.016-.018 7.584-13.505 15.551-27.138 27.07-37.714 5.253-4.822 11.188-8.95 17.688-11.904 6.678-3.036 14.489-5.142 21.877-4.48 7.923.711 14.246 7.237 18.635 13.39 4.193 5.878 6.175 12.948 6.28 20.132.106 7.196-1.414 15.122-4.986 21.436-3.82 6.752-11.483 8.645-18.762 8.12-4.558-.329-8.592-1.876-11.062-5.92-2.262-3.702-3.988-9.318-.959-13.06 2.263-2.795 6.285-3.931 9.75-3.309 3.514.631 7.198 3.567 6.987 7.119zm-73.606 18.438c3.197-4.111 6.029-8.487 8.777-12.906 5.385-8.658 10.545-17.597 17.597-25.042 3.563-3.761 7.578-6.999 12.062-9.6 2.258-1.308 4.604-2.454 6.963-3.565 2.505-1.18 5.036-2.376 7.722-3.086 5.122-1.354 10.56-.468 15.298 1.78 4.405 2.09 8.7 5.352 11.065 9.703 2.902 5.339 2.31 12.171.614 17.8a32.43 32.43 0 0 1-3.713 8.122c-1.501 2.342-4.839 5.875-7.653 3.278-.382-.655-.281-1.668.233-2.175.72-.71 1.654-.506 2.443-.092a.87.87 0 0 0-.39.355c-.265.454-.089 1.077.295 1.405.704.603 1.535.297 2.153-.274.072.039.162.042.227-.03 6.006-6.62 7.3-17.218 3.872-25.335-3.606-8.534-11.908-13.204-21.027-12.89-9.576.329-17.985 5.866-24.618 12.403-7.38 7.272-12.652 15.853-17.176 25.103-1.28 2.619-2.6 5.231-4.206 7.67-1.768 2.683-3.942 5.003-6.28 7.192-4.057 3.798-8.53 8.33-14.203 9.345.226-.279.452-.558.673-.84 3.934-1.569 6.721-5.04 9.272-8.321zm-6.078 4.467c8.452-8.109 13.419-19.283 19.734-28.983 6.783-10.42 15.566-19.863 26.232-26.375 9.854-6.015 22.331-9.103 33.08-3.469 5.043 2.644 8.883 6.913 10.64 12.372 1.785 5.544 1.514 11.603.055 17.187-1.657 6.343-5.249 14.414-12.71 15.147-3.423.337-7.885-1.846-6.543-5.92 1.088-3.3 5.181-3.487 7.087-1.094-1.054-.476-2.421-.35-3.191.537-.66.76-.72 1.824-.24 2.594-.01.073.008.15.075.219 3.401 3.514 7.374-1.052 9.117-3.862 2.799-4.51 4.493-9.698 4.84-15 .344-5.245-.843-10.234-4.343-14.247-3.263-3.742-7.772-6.54-12.491-8.02-5.055-1.588-10.228-1.402-15.164.506-5.261 2.034-10.498 4.7-15.175 7.856-8.833 5.963-15.254 14.719-20.916 23.597-3.52 5.52-6.833 11.174-10.539 16.574-1.966 2.867-4.037 5.67-6.31 8.303-1.642 1.901-3.461 3.7-5.648 4.917.73-.971 1.434-1.96 2.105-2.971.002.14.173.258.305.132zm2.822-5.426a54.51 54.51 0 0 0 1.968-4.197c7.468-12.794 14.277-25.9 24.247-37.015 4.642-5.176 9.852-9.88 15.666-13.706 5.685-3.74 12.32-7.147 19.119-8.14 13.375-1.954 26.087 7.797 30.11 20.204 2.173 6.704 2.306 13.928.6 20.745-1.557 6.224-4.607 13.322-10.525 16.533-6.422 3.484-18.207.675-20-7.275-.959-4.247 1.384-7.807 5.585-8.786 3.93-.914 9.329.73 9.545 5.22-.538-1.837-2.349-3.151-4.3-3.39-1.794-.22-3.57.304-5.213.98-1.254.515-2.61 1.126-3.415 2.275-1.511 2.153-.168 5.125 1.353 6.899 1.75 2.04 4.316 3.315 6.955 3.697 6.138.888 11.638-3.2 14.715-8.196 3.591-5.832 4.71-13.264 4.698-20.016-.012-6.138-1.49-12.443-5.665-17.12-2.345-2.625-5.358-4.517-8.372-6.273-3.209-1.868-6.577-3.65-10.314-4.112-3.624-.45-7.268.373-10.691 1.515-3.475 1.158-6.922 2.547-10.17 4.245-6.177 3.229-11.666 7.665-16.498 12.665-11.972 12.387-20.003 28.022-28.854 42.647a.139.139 0 0 0-.045.032c-.175.181-.339.373-.5.569zm.476.032a.158.158 0 0 0 .107-.073c7.56-11.474 13.725-23.836 22.172-34.726 7.62-9.821 16.95-18.284 28.594-22.962 3.138-1.26 6.36-2.47 9.702-3.053 3.805-.663 7.476-.192 11.005 1.368 5.642 2.495 11.741 6.094 15.039 11.47 3.073 5.009 3.893 11.255 3.422 17.03-.515 6.312-1.876 13.329-5.904 18.406-4.082 5.146-11.478 8.19-17.408 4.225-1.341-.898-2.49-2.097-3.232-3.538-.62-1.204-1.097-2.768-.404-4.06.452-.845 1.363-1.386 2.184-1.809 1.705-.878 3.804-1.614 5.742-1.504 2.149.122 4.242 1.61 4.332 3.84-2.081-4.167-8.452-3.257-9.004 1.555-.289 2.513 1.397 4.483 3.68 5.298 2.574.918 5.449.394 7.812-.862 5.598-2.976 8.213-9.852 9.567-15.691 1.381-5.954 1.42-12.42-.976-18.124-4.787-11.395-18.076-15.584-29.49-13.312-13.465 2.679-25.154 12.649-33.798 22.865-5.023 5.935-8.99 12.57-12.952 19.233-4.065 6.839-8.335 13.391-13.59 19.381.72-1.1 1.404-2.222 2.047-3.366.511-.47 1.007-1 1.353-1.591zm76.832-15.727c4.154-7.902 6.187-18.489-.35-25.78-5.983-6.675-16.074-8.124-24.41-6.03-8.7 2.185-15.885 8.13-21.29 15.107-6.21 8.014-9.912 17.55-15.267 26.097-5.382 8.589-13.402 16.608-23.877 17.838.241-.281.487-.558.724-.843 4.121-.556 7.594-2.846 10.71-5.501 3.685-3.14 7.421-6.46 10.21-10.446 2.763-3.951 4.665-8.409 6.827-12.697a79.159 79.159 0 0 1 7.948-12.675c5.867-7.62 13.354-15.094 22.555-18.447 8.75-3.19 19.555-2.262 25.836 5.275 3.456 4.148 5.181 9.578 5.094 14.95-.084 5.161-1.893 9.797-4.607 14.061-.083-.036-.184-.032-.254.038-.486.492-.795 1.213-1.561 1.316-.361.05-.74-.09-.814-.488-.065-.357.164-.5.437-.568.028.02.058.038.085.058.159.112.356.027.459-.116.159.206.448.291.655.032.13-.164.25-.332.364-.503.07-.037.122-.1.135-.195l.003-.033c.06-.098.112-.2.167-.3a.26.26 0 0 0 .221-.15zm-11.558-21.437c-6.187-3.237-13.797-3.274-20.036-.202-.398.135-.79.282-1.175.44 4.58-2.833 9.776-4.714 15.132-4.906 5.055-.182 9.564 2.133 12.753 6.003 3.283 3.984 4.606 8.764 5.036 13.78a8.54 8.54 0 0 0-.194-.476c-1.22-6.182-6.05-11.778-11.516-14.639zm-15.142-1.334c5.119-1.026 10.528-.395 15.194 2.115 4.96 2.668 8.176 6.877 10.234 11.876a8.542 8.542 0 0 0-.764-.793c-4.764-8.497-15.443-12.379-24.664-13.198zm9.172 12.016c.012-.028.02-.057.03-.086 1.324-1.985 3.939-3.76 6.168-4.022 2.375-.28 4.425.639 6.076 2.23.195.215.389.43.577.651-3.831-2.828-9.48-2.035-12.85 1.227zm-.515 1.033c1.677-1.846 3.885-3.105 6.391-3.422 2.6-.329 4.81.46 6.861 1.803-1.956-.845-4.185-1.133-6.275-.939-2.506.233-5.02 1.125-7.033 2.654.02-.031.037-.064.056-.096zm-.58-10.29c-.18.2-.28.437-.325.686a8.109 8.109 0 0 0-1.637-1.57 8.375 8.375 0 0 0-1.19-.708c1.374.315 2.732.69 4.067 1.135a1.456 1.456 0 0 0-.915.456zm11.145 5.238c-1.235-.522-2.62-.718-3.913-.543-2.055.278-4.462 1.78-5.837 3.622.12-.47.19-.95.224-1.435.742-1.342 1.919-2.426 3.417-2.929 2.2-.737 4.349-.063 6.109 1.285zm-9.506.978a8.832 8.832 0 0 0-.073-1.04c.477-1.276 1.6-2.228 2.959-2.57 1.307-.33 2.523-.06 3.706.391.197.13.396.256.588.389-2.652-.731-5.625.495-7.18 2.83zm.272-6.22a.921.921 0 0 0-.11-.148 32.931 32.931 0 0 1 4.912 2.218c.047.026.09.054.136.08-2.194-.302-4.497.371-5.406 2.32a9.265 9.265 0 0 0-.48-1.569c.08-.458.288-.89.642-1.218.763-.707 1.687-.614 2.612-.374.154.04.309-.175.168-.287-.893-.712-2.33-.437-3.103.338a2.43 2.43 0 0 0-.584.951 9.02 9.02 0 0 0-.696-1.18c.003-.257.076-.505.264-.715a.923.923 0 0 1 1.26-.119c.206.162.537-.038.385-.297zm-11.315-2.455c.228-.06.457-.11.687-.162a.09.09 0 0 0 .068.045l.217.03c-.323.019-.647.047-.972.087zm6.182 17.88c2.317-4.536-.352-10.629-4.798-12.661-4.44-2.03-9.53-.842-13.436 1.855a42.567 42.567 0 0 1 1.638-1.553c1.661-1.106 3.599-1.826 5.464-2.48 2.627-.92 5.322-.97 7.861.271 2.307 1.128 4.07 3.13 4.792 5.607.807 2.767.187 5.226-.978 7.76a.24.24 0 0 0-.019.116c-.2.431-.374.872-.516 1.323-.001-.08-.005-.159-.008-.238zm-7.388-1.512c-3.606-2.073-8.363-2.055-11.754.47-3.1 2.31-4.406 6.876-2.452 10.34 1.578 2.797 5.268 4.037 8.098 2.793-3.098 2.026-7.323 1.41-9.559-1.955-2.776-4.18-1.004-9.567 2.866-12.344 4.105-2.944 10.273-2.879 14.545-.296 4.158 2.514 5.467 7.94 5.417 12.502-.054 4.959-1.935 9.288-5.693 12.52a.2.2 0 0 0-.073.142c-.452.077-.904.17-1.353.275 4.798-7.013 9.148-19.166-.042-24.447zm1.834 13.508c.323-3.643-.177-8.471-3.343-10.825-2.676-1.99-6.706-2.21-9.47-.27-2.453 1.72-3.419 5.143-2.172 7.89.97 2.139 2.884 3.04 4.946 3.14a6.473 6.473 0 0 1-3.101-.69c-2.142-1.093-3.244-3.373-3.194-5.734.12-5.642 5.955-8.68 11.031-7.588 5.168 1.112 8.312 5.632 8.114 10.82-.197 5.147-2.656 10.294-5.584 14.454-.412.117-.82.248-1.226.389 2.07-3.555 3.635-7.46 4-11.586zm-4.696 4.404c1.315-3.128 1.816-7.072-.486-9.893-.9-1.101-2.286-1.99-3.76-1.836-1.223.13-2.416 1.036-2.578 2.309-.184 1.442.633 2.716 1.807 3.539-2.262-.708-4.034-2.498-3.412-5.265.432-1.92 2.002-3.194 3.998-2.978 2.028.22 3.677 1.725 4.709 3.402 4.209 6.846-.758 14.423-4.42 20.176a.334.334 0 0 0-.05.127c-.561.365-1.104.758-1.628 1.173 2.057-3.497 4.258-7.038 5.82-10.754zm-1.314-1.565c.202-.58.42-1.283.583-2.025a.087.087 0 0 0 .016-.078c.33-1.56.398-3.284-.488-4.434-.473-.613-1.276-.882-1.927-.668.038-.085.018-.201-.09-.22-.882-.16-1.24 1.088-1.11 1.752.206 1.04 1.165 1.478 2.11 1.68a7.594 7.594 0 0 1-.566.02c-.866-.2-1.66-.589-2.328-1.287-1.623-1.698-1.075-4.842 1.817-4.24 3.026.632 4.012 4.393 3.748 7.03-.296 2.954-1.897 5.594-3.32 8.125-1.43 2.542-2.864 5.082-4.26 7.643a.314.314 0 0 0-.04.178c-.385.361-.75.741-1.104 1.13 2.176-4.933 5.185-9.516 6.959-14.606zm-11.466 25.309c-.041-.118-.087-.233-.13-.35.035-5.183 2.134-9.635 4.878-13.982 1.077-1.706 2.234-3.406 3.299-5.155-1.718 3.329-3.537 6.623-4.773 10.17a.3.3 0 0 0-.016.133 17.65 17.65 0 0 0-2.362 4.318 14.672 14.672 0 0 0-.896 4.866zm-12.002-2.085a49.884 49.884 0 0 0-9.829-3.392c-2.92-.672-6.1-1.224-9.151-1.165a38.024 38.024 0 0 0 3.55-1.575c5.807.095 11.366 1.103 16.58 3.8a33.641 33.641 0 0 1 7.037 4.852c1.878 1.69 3.374 3.586 4.86 5.568.122.32.25.636.393.945-3.868-3.78-8.684-6.824-13.44-9.033zm-4.449.937c-6.13-2.232-12.762-3.777-19.36-4.035a34.319 34.319 0 0 0 3.778-1.077c3.375.382 6.702.622 10.029 1.413a50.85 50.85 0 0 1 9.876 3.442 50.66 50.66 0 0 1 8.461 5.036c2.465 1.814 4.599 3.895 6.735 6.04.101.133.197.27.303.398-5.9-4.835-12.66-8.61-19.822-11.217zm-21.793-3.591c7.223.459 14.282 1.553 21.165 4.006 6.806 2.427 13.129 5.931 18.847 10.31-2.07-.952-4.182-1.817-6.228-2.663a134.163 134.163 0 0 0-14.017-4.907 138.298 138.298 0 0 0-20.945-4.327c-2.092-.264-4.26-.64-6.364-.35.648-.592 1.282-1.2 1.906-1.821 1.879.11 3.766.016 5.636-.248zm53-46.17c-4.545-1.464-9.411-.025-12.81 3.104a44.21 44.21 0 0 1 1.435-1.651c3.819-3.197 9.212-4.986 14.015-3.127 2.547.986 4.465 3.057 5.333 5.641.633 1.881.594 3.662.172 5.475-.698-4.29-4.019-8.112-8.145-9.441zm7.734 10.894v.007c-3.236-8.085-13.96-11.34-21.32-6.53 3.615-3.34 8.203-5.347 13.23-3.9 4.644 1.337 7.776 5.512 8.163 10.194l-.073.229zm-23.147 38.383a22.129 22.129 0 0 0-.932-1.841c.862-4.538 2.258-8.857 4.557-12.897 2.114-3.713 4.838-6.947 7.912-9.874-1.916 4.66-4.829 8.65-7.415 12.956-2.078 3.462-4.038 7.518-4.122 11.656zm4.801-21.301a25.07 25.07 0 0 0-4.456 3.86c-2.624 2.863-4.562 6.29-5.717 9.993a25.22 25.22 0 0 0-3.008-2.414c2.431-2.289 4.27-5.107 6.798-7.32 2.07-1.812 4.387-3.305 6.808-4.601.085 0 .17.001.255 0-.247.176-.477.345-.68.482zm3.437-1.022c.167-.064.333-.13.495-.205-5.302 5.363-8.95 12.699-10.028 20.067a23.251 23.251 0 0 0-1.27-1.87c2.269-6.783 5.134-13.545 10.803-17.992zm-11.07 17.648a24.295 24.295 0 0 0-2.171-2.423c.001-.004.004-.007.006-.011a26.985 26.985 0 0 1 4.971-9.114 27.837 27.837 0 0 1 3.322-3.354c.467-.399 1.639-1.474 2.806-2.247a8.485 8.485 0 0 0 1.077-.174c-5.29 4.181-7.947 11.03-10.01 17.323zm-2.04-15.244c-.938.395-1.9.73-2.892.992-1.676.44-3.352.49-5.044.69.485-.63.96-1.27 1.412-1.924.012.007.022.016.036.02 1.99.666 4.282.653 6.488.222zm3.542-1.48a24.55 24.55 0 0 1-.671.21c-.012-.062-.075-.112-.148-.071-.141.08-.284.156-.427.232-1.039.28-2.096.486-3.177.592-1.82.179-3.539-.082-5.338-.175.438-.65.863-1.312 1.27-1.984 2.652 1.348 5.626 1.711 8.49 1.196zm1.317-.636c-3.203.667-6.458.25-9.505-1.063.413-.702.81-1.414 1.19-2.137 1.654 2.69 5.199 3.282 8.315 3.2zm-3.323-2.453c.994.76 2.142 1.527 3.364 1.985-3.07-.165-5.782-.678-8.117-3.19a52.52 52.52 0 0 0 1.79-3.875c-.008 2.066 1.33 3.831 2.963 5.08zm5.177 1.96a.075.075 0 0 0-.03 0c-1.62-.24-3.139-1.187-4.467-2.108-1.977-1.373-3.457-3.212-3.253-5.74a.128.128 0 0 0-.025-.087c.565-1.39 1.118-2.777 1.697-4.149-.59 4.86 1.185 9.84 6.078 12.084zm-21.808 11.595a41.862 41.862 0 0 0 6.738-6.759c1.765.25 3.659.003 5.484-.552-2.512 1.47-4.93 3.092-7.244 4.506-.317.193-.03.69.291.5 5.735-3.39 11.302-7.184 17.794-8.832.174.046.348.088.525.123-2.785.882-5.441 2.12-7.878 3.745-2.54 1.694-5.272 3.844-6.973 6.411-.138.209.166.427.339.262 2.333-2.24 4.39-4.512 7.11-6.336 2.487-1.668 5.166-3 7.988-3.987.108.013.216.03.325.04-2.122 1.004-4.088 2.295-5.908 3.812-2.806 2.338-4.767 5.39-7.406 7.87a24.686 24.686 0 0 0-7.793-3.39c-.38-.09-.542.497-.162.586 6.542 1.534 11.933 5.764 15.322 11.382l-.024.188c-.016.144.13.22.253.2.444.765.853 1.554 1.222 2.366l.016.193c-4.702-6.659-11.66-12.007-20.02-12.328zm-2.58 1.874a39.124 39.124 0 0 0 2.34-1.68l.054-.044a.17.17 0 0 0 .155.17c4.772.473 9.222 2.236 12.93 5.303 2.221 1.836 3.988 3.987 5.717 6.201-5.406-5.847-13.401-9.694-21.196-9.95zm13.666 4.83c3.972 2.353 7.14 5.463 9.808 9.125.034.176.07.351.109.526-2.864-3.693-6.928-6.711-10.902-8.769-4.833-2.501-10.53-4.075-16.027-3.696a40.316 40.316 0 0 0 2.821-1.665c5.02.5 9.818 1.887 14.191 4.478zm18.714-24.95c-.189-.375-.16-.685-.03-.97.816-.778 1.919-.018 2.273.888.175.447.194.996.192 1.486-.104-.111-.265-.17-.405-.096a.183.183 0 0 0-.065-.031c-.744-.2-1.595-.54-1.965-1.277zm2.315 2.064l.05-.01c.02-.005.035-.015.05-.025 0 .02-.004.038-.006.058-.913 2.32-3.003 3.882-5.335 4.388-.006-.038-.037-.074-.082-.059-.129.046-.254.1-.383.147-.577.09-1.165.11-1.75.066-.012-.043-.045-.08-.098-.077-.128.005-.256.015-.384.024a7.177 7.177 0 0 1-1.74-.47c-4.038-1.672-6.243-6.144-6.175-10.361.021-1.338.246-2.613.635-3.808a40.186 40.186 0 0 1 2.152-4.02c3.38-4.3 9.32-6.44 14.955-4.537 4.576 1.545 7.56 5.31 9.143 9.733.008.023.022.038.033.057-.018.154-.037.307-.05.462-.952-2.662-2.587-5.007-5.133-6.404-4.735-2.598-11.283-2.464-15.554.99-3.86 3.122-5.385 8.675-2.562 13.005 2.651 4.067 9.259 5.106 12.234.84zm-32.418 13.72c6.305-5.815 10.42-13.373 13.764-21.172 3.693-8.613 9.618-16.674 17.273-22.209 6.812-4.925 15.506-7.542 23.688-4.667 4.21 1.48 7.945 4.354 10.021 8.356 2.346 4.525 2.414 9.764 1.667 14.705-.03-.24-.075-.48-.127-.717.119-.002.23-.079.219-.23-.61-7.854-3.628-16.46-11.238-20-7.017-3.264-15.924-.222-22.166 3.533-5.278 3.175-9.762 7.613-13.198 12.728-1.536 1.626-2.669 3.671-3.325 5.854-1.63 3.453-2.887 7.073-4.577 10.5-1.946 3.948-4.408 7.64-7.392 10.878a40.397 40.397 0 0 1-8.075 6.764h-.044a.135.135 0 0 0-.138.114 37.868 37.868 0 0 1-3.72 2.052c-4.004 1.92-8.221 2.966-12.572 3.42-.084.005-.168.007-.252.013a.112.112 0 0 0-.051.017c-.76.074-1.522.133-2.29.173.373-.378.743-.76 1.108-1.146 7.938.227 15.696-3.682 21.425-8.966zm60.617-45.757c-6.297-4.841-14.749-5.298-22.007-2.539-8.393 3.19-14.81 9.897-20.043 16.983-2.958 4.004-4.7 8.503-6.762 12.99-1.906 4.144-4.153 8.161-6.906 11.806-6.304 8.346-15.19 14.227-25.73 14.845.303-.331.606-.662.903-1 8.015-.347 14.91-5.201 20.04-11.117 6.107-7.043 9.759-15.752 14.22-23.84 4.485-8.128 10.251-15.744 18.377-20.51 7.86-4.61 18.046-6.023 26.411-1.866 5.039 2.504 8.603 6.8 9.623 12.393.808 4.436-.118 8.914-1.774 13.063 1.45-7.731.23-16.148-6.352-21.208zM106.7 192.033c2.93.788 5.858 1.581 8.786 2.373 5.847 1.579 11.803 2.918 17.391 5.297 10.244 4.36 20.742 9.023 31.903 10.413 4.806.599 9.722.284 14.064-2.022 3.857-2.048 6.664-5.514 7.47-9.853 1.63-8.778-5.103-16.52-13.64-17.611-3.553-.455-10.424.456-9.781 5.565.542 4.31 6.371 5.55 10.282 5.335-4.519 1.938-10.529 2.905-13.493-1.976-1.5-2.47-.822-5.485.98-7.6 1.844-2.165 4.543-3.165 7.31-3.456 2.622-.275 5.326-.036 7.924.363 2.654.408 5.3 1.195 7.331 3.033 3.915 3.541 5.544 9.711 4.797 14.824-.72 4.929-3.49 9.36-7.532 12.25-4.468 3.193-9.952 3.881-15.295 3.22-5.78-.714-11.376-2.708-16.915-4.426a482.156 482.156 0 0 1-16.521-5.444c-11.624-4.07-23.069-9.158-35.365-10.811a75.299 75.299 0 0 0 1.528-1.022c.006 0 .01.004.017.004 2.988.044 5.888.771 8.76 1.544zm22.636 3.148c9.067 2.973 17.5 7.557 26.556 10.554 7.446 2.465 17.878 5.022 24.583-.548 2.937-2.439 4.195-6.103 3.66-9.861-.555-3.898-2.95-7.239-6.063-9.549-2.652-1.969-7.902-4.64-10.226-.707-.829 1.402-.397 3.047.71 4.16 1.277 1.283 3.065 1.577 4.808 1.625-2.276.211-4.605-.135-6.67-1.15-2.378-1.17-4.215-3.6-2.506-6.153 2.49-3.72 9.087-2.747 12.595-1.343 4.063 1.626 7.359 4.9 8.672 9.118 1.312 4.21.609 9.102-2.17 12.57-6.297 7.856-17.616 6.433-26.164 4.137a135.225 135.225 0 0 1-13.78-4.503c-4.494-1.742-8.796-3.957-13.32-5.617-5.307-1.948-10.92-3.168-16.374-4.63-4.963-1.332-10.044-3.148-15.237-3.131a71.714 71.714 0 0 0 2.115-1.532c9.688 1.84 19.416 3.478 28.811 6.56zm43.849-4.937c-1.878-.062-3.875-.457-4.86-2.226-1.605-2.882 1.92-4.848 4.393-4.387 3.68.686 7.375 4.157 9.255 7.264 2.156 3.561 2.595 8.22.123 11.752-2.273 3.248-6.239 4.782-10.064 5.1-7.801.65-15.8-2.312-22.895-5.229-7.233-2.973-14.278-6.337-21.772-8.632-8.601-2.633-17.498-4.335-26.398-5.595.54-.412 1.07-.834 1.596-1.262 17.11.837 33.195 6.7 49.004 12.861 3.994 1.557 7.958 3.249 12.016 4.631 3.29 1.122 6.874 2.023 10.36 1.38 6.36-1.172 10.386-8.202 7.388-14.178-1.47-2.928-4.493-5.039-7.746-5.391-1.09-.118-2.589-.108-2.666 1.312-.078 1.414 1.18 1.997 2.266 2.6zm-.188 3.087c-2.27 4.002-7.006 6.203-11.642 4.753-5.908-1.848-8.795-8.336-6.757-14.087 1.041-2.94 3.394-5.237 5.749-7.179 2.625-2.164 5.51-3.205 8.903-3.324 5.944-.21 12.381 1.191 17.21 4.793 5.092 3.797 7.453 9.553 6.945 15.846-.426 5.293-2.606 10.506-6.067 14.53-3.23 3.755-7.59 6.53-12.514 7.338-6.646 1.092-13.705-.82-20.15-2.32-6.997-1.628-13.915-3.448-20.69-5.852-6.757-2.398-13.481-4.91-20.266-7.231l-.001-.001c-8.266-3.094-17.668-4.704-26.566-3.958.726-.34 1.447-.691 2.162-1.053.046.033.104.05.172.04 8.16-1.304 16.194.969 23.92 3.405 7.32 2.308 14.525 4.952 21.785 7.44 7.143 2.448 14.376 4.693 21.773 6.243 6.475 1.356 13.445 2.56 20 1.04 12.141-2.814 18.14-16.517 12.433-27.492-2.778-5.345-7.776-9.16-13.619-10.544-5.424-1.285-12.624-.814-16.926 3.146-4.435 4.082-3.878 11.403.78 15.031 4.111 3.202 9.723 2.676 13.366-.564zm-13.61-.506c-4.772-4.39-3.476-12.09 2.159-15.031 11.239-5.867 25.798.729 28.945 12.906 1.473 5.7.069 11.92-3.69 16.46-4.042 4.882-10.164 6.704-16.32 6.712-6.49.008-13.026-1.47-19.277-3.095-6.427-1.67-12.734-3.77-19.013-5.925-6.993-2.4-13.946-4.936-21.024-7.078-6.713-2.03-13.759-3.782-20.787-2.748a76.65 76.65 0 0 0 5.497-3.183.224.224 0 0 0 .116.053c13.263 1.748 25.567 7.399 38.107 11.736 6.39 2.21 12.855 4.227 19.327 6.19 5.976 1.811 12.282 3.801 18.603 3.04 10.568-1.27 17.865-10.948 16.476-21.453-.656-4.957-3.417-10.12-8.205-12.115-2.507-1.045-5.33-1.344-8.018-1.516-2.788-.178-5.661-.05-8.267 1.052-4.398 1.858-7.697 7.388-4.365 11.68 3.413 4.398 9.294 3.686 13.779 1.483-3.651 3.889-9.828 4.709-14.043.832zm19.77 7.156c1.402-2.628.985-5.74-.315-8.32-.487-.967-1.179-2.128-2.346-2.324-.837-.14-1.55.248-1.864 1.009-.02 0-.042-.001-.063.003a.272.272 0 0 0-.216-.098c-.467-.35-.965-.582-1.46-.902-.29-.188-1.026-.603-1.125-.962-.448-1.611.932-1.462 1.602-1.407 1.73.141 3.379.82 4.76 1.862 2.8 2.115 4.055 5.65 3.35 9.077-.716 3.489-3.347 6.242-6.777 7.166-3.295.889-6.81.149-9.99-.848-6.664-2.089-13.111-4.978-19.636-7.458-6.454-2.453-12.964-4.797-19.63-6.613-7.32-1.995-14.805-3.372-22.4-3.535.154-.129.312-.254.466-.385.5-.423.993-.856 1.482-1.295 2.232-.201 4.525.226 6.732.509a135.054 135.054 0 0 1 21.06 4.429 140.591 140.591 0 0 1 13.256 4.635c2.315.942 4.596 1.959 6.864 3.007.74.343 1.472.71 2.203 1.08.14.115.282.229.42.346.109.09.234.087.334.035l.618.314c.486.389 1.002.745 1.55 1.063a10.638 10.638 0 0 0 4.339 1.372c5.177 2.124 13.616 4.189 16.787-1.76zm-1.86-1.05c1.017-1.402 1.557-3.242 1.067-4.95-.44-1.526-1.668-2.545-3.283-2.22.017-.32.02-.642.007-.968.073-.124.147-.248.216-.376a.28.28 0 0 0 .033-.127c1.298-1.66 3 1.474 3.415 2.516.468 1.175.765 2.444.71 3.717-.112 2.541-1.431 4.839-3.81 5.86-3.821 1.638-8.316.757-12.23-.59.834.003 1.669-.084 2.487-.254-.006.05.017.1.082.116 3.959 1.008 8.68.893 11.305-2.724zm-8.238 1.484c2.233-1.145 4.12-2.965 5.202-5.313.2-.436.362-.881.489-1.333 2.608 1.117.284 3.947-1.075 5.008-1.343 1.05-2.898 1.868-4.616 1.638zm6.755-2.84c1.017-1.37 1.069-3.906-.953-4.268.076-.337.14-.677.177-1.021.05.023.108.037.176.024 2.697-.532 2.913 3.004 2.367 4.64-.458 1.374-1.44 2.557-2.629 3.364-2.531 1.72-5.812 1.623-8.712 1.145a12.494 12.494 0 0 0 2.422-.846c2.596.79 5.613-.966 7.152-3.038zm-12.045-26.535c-.94.37-1.855.805-2.738 1.298 2.67-3.862 5.184-8.246 5.35-13.009.136-3.91-1.452-8.582-5.384-10.132-3.251-1.28-6.33 1.077-6.17 4.522.112 2.435 1.931 4.076 4.087 4.651-2.77-.204-5.199-1.656-5.2-5.089-.004-4.467 4.55-6.727 8.512-5.731 4.932 1.24 6.063 6.655 5.782 11.09-.276 4.34-1.978 8.467-4.201 12.154a.305.305 0 0 0-.038.246zm8.99-1.587c-.007.014-.007.026-.011.04a23.278 23.278 0 0 0-3.636.17c3.433-2.332 5.103-6.626 5.52-10.695.582 3.653-.186 7.017-1.873 10.485zm3.717-5.88c.18 2.15-.157 4.14-.536 6.232a24.692 24.692 0 0 0-2.649-.29c2.238-3.344 2.592-8.006 1.434-11.83l.007-.12c.004-.124.006-.247.008-.371.902 2.049 1.547 4.126 1.736 6.379zm1.767 1.393c.433 1.835.433 3.639.574 5.475a25.939 25.939 0 0 0-2.382-.553c1.033-2.96.887-6.488-.09-9.61.216.339.444.67.683.994a23.886 23.886 0 0 1 1.215 3.694zm4.266 6.823a26.997 26.997 0 0 0-3.087-1.168c.303-2.47-.239-5.215-1.192-7.708 1.922 2.73 3.306 5.654 4.279 8.876zm-.908-4.183l-.009-.004a24.22 24.22 0 0 0-1.934-3.425 20.915 20.915 0 0 0 9.559 4.933c-2.634.09-5.45.022-7.616-1.504zm1.206 3.21c-.235-.8-.518-1.587-.84-2.36 1.68 1.251 4.441 1.287 6.722 1.052a81.2 81.2 0 0 1-5.688 1.17.244.244 0 0 0-.194.138zm2.176 2.244a26.863 26.863 0 0 0-1.84-.977 21.515 21.515 0 0 0-.224-.877.307.307 0 0 0 .243.058 47.505 47.505 0 0 0 7.547-1.89c.243.034.488.065.732.089-2.472.485-4.821 1.62-6.458 3.597zm2.408 1.556a28.158 28.158 0 0 0-1.88-1.245c1.803-1.788 3.83-3.137 6.313-3.666-1.91 1.11-3.702 2.945-4.433 4.911zm2.28 1.845a25.492 25.492 0 0 0-1.6-1.347c-.066-.052-.136-.098-.203-.149.761-1.099 1.358-2.222 2.3-3.208.293-.307.602-.592.92-.864-1.137 1.573-1.737 3.687-1.417 5.568zm1.742-3.52c-.565 1.562-.693 3.365-.254 4.995a26.728 26.728 0 0 0-.723-.747c-.218-1.284-.353-2.461.003-3.803.382-1.44 1.187-2.614 2.19-3.68l.23-.16c.266.004.532.005.797 0-1.067.821-1.9 2.445-2.243 3.394zm1.273.28c-.838 2.058-.819 4.188-.246 6.2-.086-.109-.175-.214-.263-.321-.644-1.643-.898-3.27-.511-5.042.283-1.299 1.257-3.641 2.659-4.535a19.11 19.11 0 0 0 1.927-.21c-1.554.835-2.844 2.134-3.566 3.909zm9.596 4.628c-1.82-1.4-3.3 1.045-3.202 2.643.098 1.577.806 3.146 1.199 4.663.506 1.95.898 3.94.962 5.959.056 1.8-.142 3.6-.7 5.317-.332 1.023-.8 1.887-1.348 2.709.274-.566.482-1.086.598-1.386 1.082-2.802 1.143-5.857.662-8.794-.272-1.66-.73-3.27-1.233-4.873-.523-1.664-1.11-3.465-.707-5.22.42-1.835 2.238-3.651 4.227-2.64 1.82.924 1.413 4.244-.233 5.213a3.139 3.139 0 0 1-.508 0c1.048-.7 1.282-2.823.283-3.591zm.45-8.773c3.734.62 6.408 4.122 6.149 7.89-.132 1.915-.9 3.885-2.41 5.13-1.478 1.216-3.677 1.308-4.902-.217 2.78 1.28 5.746-.751 6.302-3.72.6-3.198-1.502-6.47-4.594-7.384a6.798 6.798 0 0 0-4.985.47c-1.481.75-3.32 1.92-4.067 3.466-.755 1.561-.502 3.525-.226 5.17.165.988.407 1.96.696 2.92-.319-.577-.66-1.143-1.025-1.692-.91-2.182-1.332-4.531-.615-6.868 1.25-4.073 5.682-5.83 9.678-5.165zm-1.96 12.511c0-.037-.004-.074-.002-.111-.032-1.063.136-1.137.503-.224-.14-.074-.265.02-.297.136-.101.027-.187.1-.203.199zm8.28-11.28c-1.5-2.007-4.255-3.61-6.821-2.954.487-.244.966-.505 1.436-.784 2.575.092 4.713 1.052 6.43 3.124 1.94 2.344 2.694 5.55 2.266 8.538-.395 2.746-1.868 5.622-4.422 6.933-2.438 1.25-5.502.64-6.87-1.773a8.854 8.854 0 0 1-.143-.565c.938 1.915 3.51 2.308 5.432 1.66 2.68-.904 4.29-3.375 4.68-6.097.395-2.754-.314-5.846-1.988-8.083zm-6.903-2.365c2.331-.09 4.352.444 5.952 2.254 1.58 1.785 2.344 4.273 2.345 6.635.001 2.383-.81 4.83-2.812 6.267-1.96 1.405-5.495 1.762-6.644-.864-.032-.074-.11-.083-.171-.055-.025-.17-.041-.341-.044-.513a.266.266 0 0 0 .014.05c1.106 2.678 4.433 2.574 6.37.85 2.546-2.267 3.19-6.325 1.885-9.399-1.48-3.486-5.168-5.144-8.73-4.961a22 22 0 0 0 1.61-.702c-.107.17-.024.447.225.438zm-30.324-35.659a10.045 10.045 0 0 0-7.676-.967c-1.41.395-2.936.925-4.367 1.628.395-.307.798-.606 1.206-.9 3.998-2.01 9.298-3.373 13.228-1.21 1.798.99 3.212 2.674 3.828 4.632.018.071.038.141.061.21.056.197.106.396.145.597.482 2.479-.316 4.621-1.622 6.66.834-4.027-1.234-8.617-4.803-10.65zM52.955 204.237c8.41-1.285 16.601-3.753 24.544-6.767 7.52-2.855 15.089-6.011 21.68-10.697 6.61-4.7 11.594-11.24 15.665-18.192 3.972-6.785 7.076-14.569 6.986-22.546-.086-7.562-2.733-15.394-7.375-21.369-4.707-6.058-11.292-9.452-18.862-10.416-7.437-.948-15.17.645-21.008 5.525-5.434 4.54-9 11.785-7.806 18.953 1.236 7.42 7.547 13.583 15.342 12.874 4-.364 7.043-2.564 9.438-5.692 1.717-2.24 3.692-5.028 3.82-7.928.478 6.292-4.098 12.586-10.213 14.276-7.49 2.07-15.579-2.949-18.553-9.806-3.241-7.476-.677-16.554 4.824-22.258 5.76-5.973 14.349-8.566 22.498-8.183 8.287.389 16.483 3.87 21.935 10.234 4.872 5.687 7.25 13.158 7.644 20.56a43.818 43.818 0 0 1-.88 11.262c-.058.159-.117.317-.173.476-.019.055.002.104.04.137-1.761 7.931-5.586 15.362-10.67 21.783-.097.037-.193.076-.291.11-.193.068-.216.283-.127.41a64.135 64.135 0 0 1-6.23 6.663c-12.892 11.959-29.872 18.03-47.098 20.143-1.567.192-3.139.352-4.71.5-.14-.02-.28-.034-.42-.052zm-1.132-.187a.145.145 0 0 0-.106.065 22.071 22.071 0 0 0-.61-.03c8.056-1.843 15.931-4.492 23.625-7.491 7.69-2.998 15.84-6.095 22.635-10.857 11.505-8.063 19.289-22.027 21.666-35.76 1.31-7.573-.143-14.89-4.847-21.035-4.222-5.516-10.084-9.863-16.81-11.752-6.727-1.89-13.9-.948-19.694 3.057-5.437 3.756-9.332 10.065-9.076 16.817.252 6.64 5.497 12.813 12.41 12.894 3.774.044 6.934-2.171 9.45-4.797 2.002-2.09 3.69-4.483 4.574-7.204-.216 3.118-2.514 6.159-4.438 8.41-2.432 2.845-5.574 4.641-9.365 4.738-7.262.185-12.902-5.563-14.037-12.494-1.228-7.5 2.878-14.983 8.83-19.332 6.334-4.629 14.474-5.538 22.026-4.087 7.25 1.392 13.184 5.456 17.292 11.568 4.145 6.165 6.41 13.36 5.952 20.807-.467 7.571-3.372 14.715-7.202 21.183-3.88 6.554-8.59 12.755-14.756 17.31-6.674 4.932-14.517 8.127-22.232 11.036-8.207 3.095-16.613 5.588-25.287 6.954zm-5.485.345c13.811-5.646 28.712-8.407 41.721-15.99 12.15-7.08 22.456-17.717 26.8-31.332 2.076-6.505 3.244-14.564.758-21.11-2.347-6.176-7.85-11.38-13.629-14.38-5.6-2.905-12.167-3.891-18.21-1.817-5.391 1.85-10.156 5.915-11.991 11.422-2.178 6.535.491 14.834 7.814 16.452 5.97 1.32 11.833-3.787 14.596-9.153l.114-.13c-.93 2.48-2.558 4.674-4.42 6.583-2.487 2.552-5.573 4.642-9.274 4.457-6.638-.331-11.472-6.39-11.522-12.79-.056-7.068 4.51-13.458 10.482-16.877 5.958-3.411 13.059-3.714 19.466-1.43 6.472 2.308 12.188 6.933 15.906 12.702 4.243 6.581 4.765 14.037 2.98 21.544-3.006 12.63-10.072 25.18-20.83 32.733-3.34 2.345-7.017 4.14-10.713 5.846a200.332 200.332 0 0 1-12.045 5.096c-7.906 3.039-15.998 5.483-24.126 7.845-1.305 0-2.599.117-3.877.33zm-1.174-.068a28.898 28.898 0 0 0-4.117-.013c.966-.455 1.937-.906 2.912-1.355 6.074-2.286 12.105-4.689 18.148-7.057 6.946-2.722 13.946-5.23 20.478-8.86 2.923-1.624 6.121-2.706 8.86-4.655 2.714-1.93 5.05-4.346 7.403-6.688 4.804-4.78 9.053-9.822 11.71-16.127 2.419-5.738 3.619-12.202 3.146-18.43-.224-2.954-1.06-5.635-3.047-7.88-1.943-2.195-4.376-4.166-6.782-5.833-4.863-3.37-10.766-5.59-16.75-4.789-5.2.697-10.022 3.754-11.955 8.77-1.729 4.49-.94 12.813 5.104 13.564 2.871.357 6.075-.83 8.563-2.174a18.97 18.97 0 0 0 3.436-2.393c-3.077 4.262-7.877 7.769-12.9 6.409-7.308-1.979-9.156-10.677-6.294-16.903 2.38-5.176 7.479-8.732 12.94-9.993 6.237-1.44 12.732.37 18.007 3.803 5.565 3.62 10.652 9.294 11.817 16.005 1.137 6.549-.19 13.58-2.555 19.714-4.792 12.423-14.635 22.049-26.017 28.592-13.194 7.586-28.19 10.468-42.107 16.293zm44.794-63.036c-2.727 1.877-5.913 3.102-9.072 2.987-3.188-.116-5.178-3.213-5.753-6.083-.517-2.575-.08-5.338 1.089-7.68 2.534-5.08 8.222-7.43 13.672-7.423 5.99.008 11.43 2.923 16.05 6.52 2.255 1.755 4.652 3.806 5.901 6.434 1.326 2.79 1.394 6.081 1.28 9.113-.228 6-1.863 11.963-4.663 17.27-2.92 5.536-7.219 9.954-11.644 14.299-2.178 2.138-4.4 4.29-7.018 5.89-2.57 1.57-5.444 2.597-8.072 4.079-6.61 3.728-13.86 6.182-20.897 8.979-2.15.854-4.301 1.705-6.452 2.559 18.215-8.255 36.519-17.19 48.18-34.011 6.18-8.914 9.955-21.212 3.526-31.049-3.03-4.636-7.92-7.196-13.327-7.962-5.063-.717-10.669.444-13.725 4.89-2.704 3.934-1.815 10.228 3.062 12.025 2.487.915 5.468.234 7.863-.837zm-49.645 62.666a.13.13 0 0 0-.08.105l-.863.398c-.01.005-.013.011-.022.016-2.12.264-4.207.758-6.233 1.444 11.022-4.78 21.59-10.533 31.97-16.568 9.787-5.691 19.894-11.316 28.217-19.093 4-3.736 7.776-8.066 10.27-12.975 2.472-4.867 2.843-10.51 1.84-15.828-.934-4.945-3.355-9.709-7.59-12.594-3.874-2.64-9.15-3.522-13.335-1.062-3.988 2.344-5.955 8.494-1.774 11.715 3.34 2.575 7.32 1.439 10.217-1.003-.909.87-2.003 1.56-3.17 2.08-2.549 1.133-5.898 1.909-8.422.361-5.02-3.079-3.387-9.943.73-12.925 4.602-3.331 11.229-2.664 16.184-.503 4.665 2.034 7.93 6.07 9.457 10.879 3.386 10.664-2.167 21.439-8.846 29.52-6.633 8.026-15.202 14.356-24.17 19.543-10.484 6.064-21.675 10.75-32.677 15.776-.568.237-1.136.474-1.703.714zm45.907-31.49c4.223-3.068 8.958-6.074 11.725-10.632 1.412-2.325 2.39-4.916 3.353-7.452.994-2.617 1.858-5.31 2.142-8.109.468-4.609-.964-9.238-3.89-12.822-2.72-3.334-7.368-6.326-11.843-5.107-4.027 1.098-6.7 6.319-3.271 9.551 2.184 2.06 4.973 2.025 7.31.83a9.564 9.564 0 0 1-2.385 1.156c-2.423.766-5.406.268-7.059-1.781-1.68-2.083-1.502-5.19-.03-7.336 1.438-2.097 3.91-3.306 6.384-3.618 5.121-.647 10.095 2.34 12.902 6.491 2.818 4.168 3.812 9.452 3.638 14.417-.36 10.318-8.512 18.747-16.066 24.922-7.796 6.372-16.603 11.439-25.287 16.478-9.427 5.47-19.03 10.642-28.976 15.1 17.863-9.407 35.047-20.235 51.353-32.087zm5.52-35.876c-.426-.082-.884-.22-1.258-.439-.85-.497-1.489-1.982-.187-2.351 1.732.13 3.19.839 4.37 1.907-.261.3-.538.59-.829.867a5.622 5.622 0 0 1-2.096.016zm-26.811-6.842c-1.713 5.59-3.462 10.96-6.416 16.05-2.71 4.67-6.555 9.281-12.158 10.283-5.072.908-11.446-2.593-10.493-8.448.375-2.303 1.94-4.55 4.317-5.067 1.431-.311 3.322.024 4.063 1.449.562 1.08.237 2.444-.653 3.173.507-.934.175-2.126-.715-2.794-1.326-.996-3.178-.246-4.147.89-2.479 2.908-.474 7.43 2.68 8.832 4.466 1.986 9.186-.71 12.155-4.004 3.669-4.068 6.38-9.166 8.349-14.248 1.916-4.946 3.38-10.448 7.144-14.202a23.781 23.781 0 0 0-3.913 7.961c-.083-.021-.179.012-.213.125zm-1.41 19.497a22.071 22.071 0 0 1-4.953 8.004c-5.335 5.489-13.089 7.356-20.16 4.167-5.944-2.68-10.721-8.477-10.3-15.258.392-6.322 5.244-12.05 11.917-11.45 3.224.29 6.467 2.019 8.022 4.942.997 1.874 1.332 4.366.225 6.272a3.995 3.995 0 0 1-3.421 1.986c1.584-.566 2.839-2.384 2.954-3.936.198-2.648-1.518-5.124-3.71-6.448-4.957-2.993-11.1-.689-13.576 4.343-2.712 5.513-.39 11.944 4.283 15.568 5.115 3.966 13.916 4.961 19.442 1.255 3.078-2.064 5.449-5.42 7.2-8.632a35.211 35.211 0 0 0 3.265-8.32c-.035 2.553-.317 5.037-1.189 7.507zm-20.532-9.192c-4.45-1.872-9.36 1.43-10.131 5.97-.87 5.113 2.536 9.584 7.164 11.355 5.26 2.012 11.252.626 15.468-2.982 5.213-4.461 7.36-11.17 8.91-17.641.053.738.144 1.473.282 2.202-.902 5.78-3.21 11.098-6.974 15.62-2.033 2.442-4.351 4.431-7.496 5.207-3.086.762-6.452.712-9.52-.104-5.753-1.53-10.89-6.55-10.817-12.813.064-5.512 4.472-10.61 10.216-10.074 3.12.291 6.252 2.294 7.04 5.474.48 1.942-.214 4.158-2.106 4.951a3.256 3.256 0 0 0 1.287-2.233c.264-2.169-1.433-4.138-3.323-4.932zm1.938 4.78c-.18-1.659-1.707-2.676-3.264-2.856-4.113-.477-6.83 3.918-6.382 7.608.547 4.51 5.222 7.322 9.477 7.2 5.267-.152 9.56-3.792 12.454-7.913 1.975-2.812 3.54-5.941 4.88-9.099.877-2.064 1.713-4.22 2.357-6.414a20.724 20.724 0 0 0-.098 2.127c-.11-.005-.221.049-.254.191-2.044 8.717-5.664 19.292-15.501 21.624-4.475 1.061-9.731.029-12.885-3.51-3.051-3.426-3.542-9.533.567-12.396 1.954-1.361 4.691-1.799 6.87-.708 1.206.604 2.267 1.73 2.592 3.066.349 1.435-.372 2.916-1.603 3.521.599-.612.888-1.531.79-2.44zm-1.712 2.345a1.78 1.78 0 0 0-2.038-1.351c-1.22.214-1.788 1.608-1.603 2.721.655 3.94 6.485 3.392 9.02 2.092 4.054-2.08 6.304-6.606 8.236-10.504 2.3-4.64 4.195-9.503 6.983-13.887 2.772-4.357 6.321-7.9 10.991-10.019a25.303 25.303 0 0 0-3.833 3.202c-3.69 2.301-5.82 6.285-7.367 10.253-2.108 5.401-3.925 10.684-7.128 15.573-2.931 4.475-7.448 10.085-13.544 8.77-2.58-.556-4.616-2.682-4.756-5.38-.077-1.46.512-2.967 1.796-3.758.87-.536 2.045-.7 2.838.088.599.595.76 1.462.405 2.2zm85.3-32.17c1.647-3.128 3.387-9.976-1.14-11.55a11.854 11.854 0 0 0-.391-.585l-.012-.012a.178.178 0 0 0-.03-.076c3.166-.813 4.375 3.195 4.21 5.808-.156 2.488-1.016 5-2.178 7.189-2.02 3.801-5.776 8.209-10.274 8.833a30.374 30.374 0 0 0-.999-1.433c4.674-.165 8.75-4.253 10.814-8.174zm-.855-11.071c3.394 1.964 2.263 7.073.656 10.43 1.43-3.374 1.152-7.26-.656-10.43zm13.35 15.36c3.427-7.2 5.097-15.717 1.167-23.084-3.665-6.87-11.695-9.615-18.834-6.439-3.626 1.614-6.5 4.64-8.241 8.18-1.735 3.525-2.718 8.056-1.26 11.84 1.306 3.389 5.11 5.931 8.684 4.288 3.815-1.754 4.806-6.152 4.23-9.982l.01-.065c1.162 3.24 1.11 7.055-1.135 9.826-2.17 2.678-6.192 3.907-9.336 2.263-6.126-3.206-5.355-12.324-3.008-17.617 2.693-6.073 8.283-10.548 14.991-11.073 6.937-.544 13.272 3.157 16.114 9.521 3.327 7.451 1.444 15.365-1.502 22.572a86.646 86.646 0 0 0-6.537 8.096c1.681-2.704 3.29-5.456 4.656-8.327zm-17.782 15.275c4.92-2.025 8.435-6.274 10.525-11.073 1.217-2.794 2-5.75 2.572-8.738.587-3.061 1.13-6.255 1.16-9.379.048-4.632-2.013-10.386-7.262-11.153-4.932-.721-9.382 4.032-10.488 8.468-.396 1.59-.63 5.012 1.838 4.97 1.897-.033 3.672-1.692 4.602-3.39-.73 2.086-2.3 3.993-4.4 4.714-2.524.866-3.45-1.526-3.555-3.538-.082-1.572.341-3.145.98-4.569 2.096-4.675 6.906-9.519 12.44-7.479 5.563 2.05 7.42 8.241 7.324 13.66-.103 5.852-2.121 11.588-4.638 16.81-2.46 5.105-5.768 9.917-10.737 12.818a38.743 38.743 0 0 0-.497-2.111c.042.009.087.01.136-.01zm12.312-25.12c.175-4.236.164-9.62-3.909-12.15-3.433-2.134-7.835.18-9.523 3.517-.638 1.26-.986 3.207.419 4.11.896.575 1.815.379 2.618-.13a6.93 6.93 0 0 1-2.002 1.641c-.257.14-.592.35-.877.406-.558.11-1.668-.351-1.993-.863-.556-.876-.08-2.73.172-3.589.334-1.137.885-2.2 1.558-3.173 2.713-3.92 8.023-6.18 11.874-2.42 3.618 3.531 3.24 8.999 2.576 13.588-.691 4.772-1.597 9.627-3.751 13.982-2.083 4.21-5.335 7.802-9.698 9.668-.022.01-.035.025-.052.038a36.854 36.854 0 0 0-.494-1.621c9.397-3.343 12.708-13.93 13.082-23.004zm-13.495 21.462c6.335-4.09 10.63-10.94 11.663-18.411.49-3.543.496-7.883-1.463-11.023-1.48-2.376-4.698-3.806-7.276-2.194-1.14.712-2.016 2.26-1.445 3.6.39.917 1.33 1.252 2.14.918-.915.793-2.12 1.389-3.062.455-.977-.966-.323-2.692.27-3.653 1.227-1.988 3.616-3.718 6.027-3.596 5.752.29 6.2 7.664 6.102 11.907-.216 9.216-3.462 19.354-12.733 22.983-.11-.315-.23-.626-.348-.938a.31.31 0 0 0 .125-.048zm-.737-1.558c5.87-3.802 9.846-11.061 11.028-17.822.553-3.163.686-6.882-1.71-9.364-.856-.886-2.135-1.68-3.408-1.67a2.364 2.364 0 0 0-1.138.285.22.22 0 0 0-.142-.026c-.631.114-.924.98-.922 1.542 0 .459.152.843.426 1.142-.49.14-.825-.104-1.005-.737-.59-.494-.663-1.076-.218-1.748.236-.462.62-.87 1.056-1.148.704-.447 1.568-.603 2.39-.563 1.99.096 3.487 1.4 4.37 3.121 1.653 3.224 1.532 7.446.937 10.929-1.19 6.951-5.314 13.266-11.24 17.081l-.027.022a34.36 34.36 0 0 0-.433-1.03c.011-.006.024-.007.036-.014zm4.974-26.342c.027-.012.053-.02.08-.031a.083.083 0 0 0-.012.051l.005.06-.015.017-.052.085-.045.048c-.055-.088-.184-.138-.289-.05-.07.046-.136.08-.202.116a1.91 1.91 0 0 1-.222-1.074c.005-.052.014-.1.024-.146.072.019.156-.017.157-.12l.86-.912.982.005c.263.039.533.12.782.212.783.29 1.483.825 2.035 1.444 1.164 1.305 1.642 3.012 1.738 4.732.159 2.82-.532 5.756-1.475 8.4a27.927 27.927 0 0 1-3.735 7.06c-1.69 2.317-3.712 4.083-5.864 5.935a32.281 32.281 0 0 0-1.984-3.691c5.508-.843 9.82-6.875 11.611-11.73.993-2.69 1.715-6.022.5-8.76-.822-1.853-3.21-3.444-4.996-1.802-.087.08.024.191.117.151zm4.65 33.085a115.014 115.014 0 0 0-6.783 13.997c.182-1.61.28-3.233.285-4.87.1.028.217.008.295-.097 2.169-2.93 4.209-5.968 6.202-9.03zm-6.497 8.55a41.505 41.505 0 0 0-.73-7.388c5.53-3.057 9.098-8.508 11.655-14.14 2.846-6.268 5.1-13.406 3.927-20.356-.917-5.425-5.15-11.2-11.299-10.418-5.455.693-10.273 7.342-10.347 12.631-.038 2.634 1.298 5.697 4.37 4.542 1.904-.717 3.328-2.192 4.115-3.982-.695 2.708-1.943 5.527-4.932 5.958-4.518.651-5.445-4.97-4.66-8.162 1.506-6.12 6.302-12.12 13.013-12.405 7.252-.309 11.28 6.8 11.494 13.247.213 6.405-1.909 13.03-4.667 18.74-3.042 6.294-7.26 11.948-12.089 16.978-.275.286.159.721.435.436 5.29-5.457 9.814-11.7 12.889-18.677 2.936-6.665 5.44-15.229 3.26-22.458-1.932-6.41-8.11-10.492-14.699-8.233-3.145 1.078-5.66 3.342-7.456 6.1-1.806 2.776-3.414 6.41-3.074 9.79.285 2.83 2.555 5.76 5.678 5.253 3.21-.522 4.503-3.505 5.139-6.398-.083 3.415-1.117 6.966-4.723 8.098-4.587 1.438-7.775-3.351-7.982-7.339-.4-7.686 5.159-15.487 12.726-17.12 7.67-1.654 14.204 3.144 16.475 10.339 2.29 7.26.008 14.677-3.403 21.184-4.363 8.318-9.95 15.957-15.115 23.78zm-7.144-25.146c-3.678-1.17-5.9-4.96-6.858-8.485-.99-3.638-.858-7.541.243-11.138 2.226-7.274 8.434-12.484 15.929-13.609 7.6-1.14 15.067 2.327 19.262 8.744 4.452 6.807 4.438 16.353-1.44 22.28 2.48-6.373 3.402-13.498.796-19.944-2.832-7.006-9.63-11.172-17.163-10.508-7.34.646-13.266 5.9-15.789 12.692-2.068 5.568-2.19 14.86 4.463 17.48 3.3 1.3 7.212-.071 9.367-2.791 2.382-3.007 2.453-7.239.834-10.597 1.908 3.282 2.14 7.528.42 10.942-1.801 3.571-6.033 6.215-10.064 4.934zm-12.06-104.962c-4.034-1.655-9.15-1.623-12.056 2.066-2.666 3.386-3.289 8.737-.556 12.274 1.236 1.6 3.213 2.591 5.214 2.767-2.164.197-4.382-.4-6.163-1.885-3.62-3.02-3.529-8.648-1.154-12.39 2.59-4.082 7.76-5.66 12.37-4.985 4.87.714 8.917 3.9 11.725 7.817 3.457 4.823 4.77 10.748 5.45 16.547-.236.854-.439 1.72-.614 2.595-1.132-9.7-4.35-20.757-14.216-24.806zm13.639 28.87c-5.279-5.675-4.032-14.519-8.544-20.682-2.223-3.037-5.975-5.125-9.793-4.936-3.53.174-6.668 2.62-6.141 6.423.46 3.317 3.35 5.32 6.438 5.524-3.882.389-7.878-2.352-7.662-6.67.12-2.4 1.483-4.797 3.658-5.894 2.676-1.348 5.99-.696 8.596.502 9.554 4.394 9.255 15.807 13.643 23.977a38.034 38.034 0 0 0-.195 1.757zm-.129 2.302c-4.657-2.998-5.522-8.878-6.67-13.891-.991-4.329-2.66-9.328-6.98-11.389-3.063-1.462-8.305-1.132-9.264 2.88-.496 2.075.375 3.697 1.813 4.787a5.63 5.63 0 0 1-1.32-1.126c-1.884-2.202-1.81-5.732.685-7.437 4.276-2.924 10.356.075 12.967 3.846 4.365 6.303 2.971 15.49 8.83 20.917-.03.469-.048.94-.06 1.413zM92.78 27.94c-2.315-3.538-1.364-8.96 1.67-11.794 3.388-3.165 8.625-2.228 12.313-.136 3.452 1.958 6.147 5.084 7.996 8.564 2.435 4.582 3.439 9.755 4.041 14.87-3.23-7.617-3.847-17.03-11.552-21.624-3.443-2.052-8.56-3.242-11.955-.466-2.664 2.18-3.697 6.298-2.009 9.374 1.554 2.832 5.013 4.236 8.079 3.588-2.913 1.439-6.736.447-8.583-2.376zm8.823 3.253a12.388 12.388 0 0 1-3.476 2.046c1.194-.483 2.301-1.184 3.355-1.966.04-.026.081-.052.121-.08zm19.555 2.187a38.137 38.137 0 0 0-.65 1.865c-1.432-10.243-6.416-22.296-18.015-23.583-4.964-.55-10.346 1.392-12.866 5.913-2.178 3.908-2.095 9.422 1.425 12.545 1.942 1.723 4.904 2.597 7.559 2.206-.737.327-1.49.588-2.258.749-2.93.615-5.757-.705-7.636-2.945-3.128-3.728-3.295-9.417-.788-13.499 2.688-4.377 7.857-6.86 12.91-6.884 5.35-.024 10.58 2.499 14.17 6.418 4.18 4.561 6.055 10.793 5.885 16.905-.005.188.121.288.264.31zm-32.114-.68c-4.951-2.81-6.46-9.463-4.678-14.595C86.419 12.19 92.437 8.4 98.393 7.418c6.204-1.021 12.935.78 17.616 5.028 5.383 4.882 7.414 12.514 5.614 19.487-.019.074 0 .133.038.176-.034.08-.066.163-.1.244.03-5.748-1.708-11.533-5.429-15.98-3.736-4.464-9.438-7.328-15.293-7.29-5.215.034-10.507 2.578-13.346 7.042-2.692 4.23-2.587 10.056.479 14.078 1.665 2.184 4.261 3.785 7.069 3.705.487-.013.959-.074 1.42-.167-2.463.548-5.081.285-7.418-1.041zm33.151-23.596c1.793-3.407 6.482-4.655 9.27-1.67 1.435 1.536 1.766 3.688.68 5.514-.79 1.328-3.09 2.768-4.674 2.144 2.098-.12 4-1.851 3.765-4.118-.265-2.568-2.965-4.205-5.335-3.244-2.974 1.206-3.67 4.639-3.28 7.496.535 3.926 2.37 7.52 1.238 11.29.525-5.794-4.607-11.822-1.664-17.412zm-2.118 7.051a.103.103 0 0 0 .016-.098c-1.234-3.668-1.375-7.912 1.434-10.909 2.635-2.81 6.822-2.984 9.962-.903 2.795 1.852 4.263 5.257 3.153 8.5-.536 1.564-1.612 2.958-3.065 3.765-.908.504-1.96.792-2.975.504-.994-.282-1.506-.958-1.767-1.805.743.567 1.848.64 2.788.39 1.689-.446 3.076-1.895 3.584-3.55 1.1-3.585-2.242-7.066-5.786-6.971-4.173.112-6.746 4.026-6.658 7.898.114 5.114 3.819 10.274 2.095 15.32.458-4.19-.597-8.519-2.781-12.14zm4.568 10.239a39.779 39.779 0 0 0-1.16 1.958c.035-.106.06-.212.09-.317 1.067-1.837 1.438-3.836 1.149-5.977-.384-2.844-1.678-5.55-1.659-8.45.018-2.715 2.309-6.954 5.675-5.285 3.159 1.567 1.91 5.669-1.022 6.169 1.056-.568 1.793-1.68 1.608-2.97-.291-2.03-2.493-2.2-3.88-1.106-1.682 1.326-1.899 3.52-1.23 5.424 1.234 3.519 2.506 6.803.437 10.308-.056.094-.047.179-.008.246zm.79-9.118c-.664-1.801-1.55-3.594-.404-5.436.76-1.224 3.066-2.406 3.567-.346.332 1.362-.628 2.53-1.86 2.933.623-.638 1.289-1.695.481-2.399-.57-.496-1.466-.29-1.936.233-.941 1.05-.255 2.89.184 3.976.815 2.017 1.747 3.7 1.955 5.905.009.094.08.162.16.193-.477.58-.943 1.169-1.386 1.774.56-2.221.024-4.704-.76-6.833zm1.606 1.057c-.394-.892-.855-1.759-1.187-2.677-.154-.426-.303-.865-.376-1.313l-.062-.778c1.082-.124 1.48.017 1.2.423a.295.295 0 0 0-.084-.178v-.013c0-.24-.39-.31-.432-.058l-.004.029a.248.248 0 0 0-.068.14c-.174 1.256.167 2.247.809 2.929.935 1.298 2.56 2.08 4.14 1.838a41.242 41.242 0 0 0-3.104 3.307c.154-1.265-.325-2.502-.832-3.65zm-7.788-12.25c1.505-2.813 4.485-4.483 7.633-4.545 3.131-.062 6.869.86 8.533 3.74 1.548 2.678 2.083 6.364.728 9.203a41.615 41.615 0 0 0-3.963 3.089c-.826.335-1.65.437-2.405.33a4.94 4.94 0 0 0 1.694-.41c2.79-1.22 4.515-4.357 4.397-7.353-.284-7.242-9.998-10.82-14.889-5.535-2.114 2.283-2.783 5.378-2.24 8.31-.73-2.242-.656-4.645.512-6.829zm62.902 3.707c2.657-4.628 7.585-7.604 12.773-8.493 5.396-.925 12.1.163 14.722 5.577 2.544 5.254 2.302 13.004-2.523 16.88-2.407 1.935-5.729 2.437-8.48.907-2.24-1.246-3.014-3.467-3.354-5.802.508 1.491 1.33 2.82 2.79 3.703 1.906 1.152 4.377 1.341 6.477.653 4.922-1.615 6.674-7.681 5.222-12.267-1.466-4.629-5.91-8.062-10.699-8.563-2.973-.312-5.848.667-8.444 2.044-2.674 1.418-5.34 3.179-6.82 5.905-1.696 3.13-2.047 6.992-2.008 10.49.028 2.417.309 4.816.728 7.194a39.2 39.2 0 0 0-.882-2.372c.086-.049.139-.157.084-.28-2.237-5.069-2.405-10.664.414-15.576zM57.308 217.154c-.075.371-.314.674-.699.845-.678.3-1.39-.13-1.85-.613a6.572 6.572 0 0 1-.925-1.27c-.165-.518-.355-1.013-.621-1.437-.02-.069-.044-.138-.061-.205-.016-.063-.076-.073-.12-.05-.018-.023-.032-.048-.05-.07a.193.193 0 0 0-.102-.066.215.215 0 0 0 .024-.288.112.112 0 0 0-.037-.073c1.945.153 3.645 1.047 4.44 3.227zM225.946 52.646c-3.147-4.34-7.979-7.51-13.172-9.307.24-.074.302-.482-.004-.571-7.862-2.287-14.995-7.603-18.995-14.822-2.215-3.997-3.299-9.348.292-12.917.786-.782 1.741-1.413 2.807-1.737.836-.254 2.459-.51 3.247.079 1.069.8-.016 1.937-.678 2.27-.663.332-1.404.241-2.106.214-.811-.031-1.528-.102-2.27.13-.012-.006-.023-.01-.035-.017-.019-.085-.04-.17-.057-.255-.023-.111-.109-.145-.192-.129-.053-.06-.15-.085-.23-.018l-.027.025a.37.37 0 0 0-.322.296c-4.555 4.399.41 12.21 3.396 16.094 3.907 5.085 10.004 9.233 16.645 8.955.294-.012.294-.442 0-.456-6.178-.297-11.503-3.167-15.482-7.87-3.167-3.743-8.2-11.191-4.706-15.978-2.383 11.547 8.993 20.528 19.329 21.93.281.04.416-.374.121-.44-5.274-1.172-10.324-3.038-14.177-6.996-3.433-3.526-5.277-8.223-5.09-13.086.025.404.062.808.112 1.21a.113.113 0 0 0-.053.106c.408 9.692 11.252 16.48 20.139 16.765.284.009.267-.4 0-.432-7.844-.954-17.243-5.565-19.435-13.738a7.56 7.56 0 0 0 .793 1.508c3.189 6.547 11.17 9.047 18.055 8.815.287-.01.284-.427 0-.444-3.85-.239-7.67-.576-11.188-2.302-2.329-1.142-4.35-2.789-5.827-4.877.359.324.748.609 1.16.853 3.772 4.125 10.151 4.538 15.316 3.397.218-.048.174-.414-.054-.395-4.577.38-9.304.774-13.144-1.675 3.683 1.65 8.02.064 11.22-2.012.201-.13.073-.517-.175-.413-3.628 1.518-6.932 3.627-11.002 2.23-.087-.029-.152.085-.11.15a10.99 10.99 0 0 1-1.084-.8 8.554 8.554 0 0 0 4.988.465c6.642-1.385 8.924-8.967 8.1-14.892-.44-3.161-1.525-6.392-4.023-8.521-2.29-1.952-5.33-2.796-8.282-2.993-6.078-.406-12.476 1.957-16.493 6.614-3.24 3.758-4.942 9.484-3.825 14.473-1.957-3.34-4.465-6.343-7.514-8.715-7.156-5.57-16.118-5.99-24.57-3.374a41.308 41.308 0 0 0-10.693 5.095c1.398-2.848.835-6.468-.705-9.168-1.77-3.103-5.692-4.125-9.061-4.062-6.546.123-11.09 6.939-8.553 12.808-.153-.184-.302-.37-.461-.548-4.618-5.138-11.885-7.576-18.685-6.784-6.394.745-12.812 4.495-15.387 10.608-2.25 5.34-1.012 12.36 3.832 15.87 4.948 3.585 13.118 2.309 16.273-3.091.09-.152.025-.32-.09-.42-.004-.095-.114-.192-.206-.124a.681.681 0 0 0-.018.013.249.249 0 0 0-.326-.187c-.313.04-.63.067-.948.083-1.984-.244-3.995-.763-5.164-2.543-1.566-2.385-.336-5.088 2.267-5.989 4.348-1.505 8.277 1.92 10.06 5.58 3.242 6.655 2.022 16.148 9.248 20.385-.001.46.003.923.02 1.387.322 8.93 4.063 16.705 9.52 23.614 5.368 6.796 11.822 12.74 16.406 20.143.268.434.528.873.781 1.316-4.24-5.346-10.913-8.394-17.864-7.71-8.27.815-15.266 6.361-17.714 14.341-1.208 3.942-1.28 8.27-.054 12.216 1.113 3.584 3.498 7.255 7.241 8.447 3.484 1.11 7.2-.463 9.52-3.145-2.23 2.905-5.645 5.495-9.318 5.438a27.052 27.052 0 0 0-.657-.813c-5.547-6.574-13.93-10.198-22.43-10.672-6.235-.347-12.74 1.045-18.116 4.29a.163.163 0 0 0-.161-.038c-8.557 2.146-13.285 11.056-16.698 18.4-2.079 4.473-3.982 9.326-7.143 13.17-1.645 2.002-3.78 3.628-6.392 4.046-1.365.219-2.838.1-4.052-.614-.683-.403-1.31-.993-1.496-1.797a2.15 2.15 0 0 1 .233-1.561c1.037-.925 1.8-.878 2.288.135-.3-.126-.633.345-.355.584l.02.016c-.004.006-.01.011-.014.019-.05.084 0 .18.086.21l.112.04c.051.018.095 0 .126-.033 2.352 1.64 5.61.253 6.664-2.342 1.283-3.16-.19-6.853-2.646-8.993-5.1-4.444-12.976-3.332-16.806 2.138-4.394 6.273-2.726 14.6 2.654 19.672 2.909 2.741 6.678 4.614 10.624 5.252 4.206.68 8.476-.401 12.064-2.65 6.24-3.914 11.092-12.064 10.156-19.651.036.107.07.216.109.324 2.48 6.904 9.572 12.225 17.024 11.848 6.964-.351 12.967-6.245 13.739-13.147a12.186 12.186 0 0 0-.041-3.01c1.51 2.23 2.268 5.137 2.26 7.718-.016 5.726-2.881 10.94-6.66 15.068-3.85 4.205-8.569 7.582-13.152 10.928a281.294 281.294 0 0 1-14.342 9.79c-10.016 6.406-20.66 11.599-31.06 17.322-5.112 2.814-10.092 5.851-14.83 9.264-4.35 3.132-8.76 6.46-12.216 10.595-6.86 8.204-8.328 20.467-2.672 29.75.181.298.633.034.466-.272-5.445-10.023-3.93-22 3.824-30.347 3.972-4.276 8.821-7.807 13.62-11.087 5.068-3.464 10.404-6.477 15.803-9.386 10.604-5.712 21.182-11.308 31.29-17.888a247.647 247.647 0 0 0 14.853-10.495c4.137-3.15 8.24-6.474 11.313-10.718 3.175-4.386 5.146-9.99 4.17-15.436-.386-2.144-1.406-4.446-2.931-6.176a13.413 13.413 0 0 0-.21-.755.368.368 0 0 0-.332-.267.144.144 0 0 0-.137.01.421.421 0 0 0-.213.12c-1.245-1.089-2.745-1.799-4.453-1.85a.247.247 0 0 0-.168-.073c-.254-.01-.469.03-.654.101-.089.008-.177.014-.267.026a.219.219 0 0 0-.181.28c-.626.683-.414 2.054.369 2.728.654.561 1.431.837 2.232.896a6.485 6.485 0 0 1-1.586.159c-1.798-.062-4.004-1.524-3.343-3.593.845-2.644 4.89-1.954 6.687-1.06 5.092 2.535 7.245 8.509 6.696 13.906-1.185 11.656-11.29 20.342-20.265 26.593-10.09 7.027-20.69 13.408-31.305 19.602-9.715 5.67-20.258 10.492-28.998 17.667-9.292 7.628-15.722 19.25-14.94 31.536.008.126.192.127.197 0 .248-6.578 1.613-12.949 4.763-18.775 3.053-5.645 7.566-10.25 12.688-14.05 4.895-3.63 10.251-6.553 15.549-9.537 6.192-3.488 12.348-7.036 18.435-10.704a614.59 614.59 0 0 0 17.962-11.248c4.927-3.204 9.839-6.491 14.225-10.423 7.776-6.969 16.457-19.292 10.513-29.961-1.979-3.552-7.613-8.362-11.807-5.133-1.606 1.238-1.436 3.436.032 4.714 1.488 1.297 3.297 1.225 5.037.732-1.008.658-2.14 1.1-3.376 1.17-2.224.127-4.742-1.177-5.383-3.432-.697-2.453.981-4.976 3.139-6.047 2.384-1.184 5.273-.586 7.53.594 4.023 2.103 6.884 6.125 8.014 10.473 1.291 4.972-.158 9.857-1.976 14.494-.938 2.393-1.887 4.821-3.29 6.988-1.316 2.029-3.065 3.711-4.927 5.234-3.863 3.16-8.01 6.018-12.088 8.89-8.191 5.77-16.588 11.231-25.146 16.439-9.662 5.878-19.622 11.211-29.697 16.337-.174.089-.168.267-.077.389-5.989 2.928-10.826 8.486-14.003 14.23-3.334 6.03-5.489 13.47-4.678 20.404.032.277.444.294.443 0-.017-7.136 1.205-13.827 4.694-20.135 3.38-6.112 8.251-10.568 13.945-14.428 1.744-.858 3.48-1.734 5.21-2.62a.3.3 0 0 0 .086.094 34.58 34.58 0 0 0-11.273 7.698c-6.536 6.717-11.057 16.79-10.98 26.257 0 .177.291.231.32.044.72-4.678 1.496-9.221 3.307-13.628 1.813-4.411 4.406-8.533 7.713-11.975 5.55-5.777 13.057-9.428 20.973-10.065-16.102 3.694-28.962 17.979-29.194 34.98-.002.117.17.113.18 0 .815-8.934 4.346-17.545 10.633-24.012 5.103-5.25 11.733-8.822 18.848-10.357-4.494 1.647-8.676 4.369-12.268 7.482-7.509 6.511-13.102 15.498-15.07 25.283-.046.225.286.322.347.095 2.03-7.558 5.59-14.628 10.804-20.49 5.257-5.911 12.31-11.079 20.157-12.751a22.448 22.448 0 0 1 6.032-.432.235.235 0 0 0 .185.07c.156-.005.312-.014.468-.02 6.138.552 12.152 3.557 15.018 9.16 3.443 6.736-.483 16.283-8.648 16.503-3.96.106-8.012-2.067-9.243-5.997-.88-2.807-.31-5.927 1.418-8.219-2.49 4.832.745 11.71 6.24 12.98 3.383.782 6.569-.648 8.292-3.636 1.663-2.884 1.726-6.434.647-9.53-2.488-7.14-9.8-10.37-16.98-9.854-8.066.58-15.02 5.784-20.468 11.403-6.04 6.233-10.934 14.401-10.813 23.33.003.232.358.233.36 0 .08-7.07 3.047-13.46 7.34-18.953 4.191-5.36 9.632-10.322 15.873-13.141 6.37-2.878 14.46-3.285 20.09 1.44 4.728 3.967 7.128 12.787 1.62 17.229-3.646 2.94-8.94.89-11.18-2.779-1.673-2.74-1.468-5.634-.252-8.262-.354 1.737.045 3.801.455 5.315.648 2.39 2.128 4.747 4.673 5.378 2.535.63 5.298-.698 6.733-2.806 1.799-2.641 1.657-6.286.42-9.12-1.116-2.562-3.154-4.71-5.635-5.988-3.166-1.632-6.757-1.551-10.154-.771-6.812 1.565-13.365 5.085-18.4 9.936-5.632 5.428-9.771 12.98-10.171 20.897-.01.201.282.19.305 0 1.49-12.248 9.179-22.164 20.264-27.4 5.4-2.551 12.601-5.15 18.243-1.961 4.898 2.769 8.662 10.856 3.492 15.262-2.76 2.352-6.626 1.71-8.446-1.4-1.25-2.139-2.382-6.668-.687-8.905-.354 2.259-.157 4.733 1.325 6.562 1.402 1.73 3.665 2.49 5.692 1.393 4.96-2.682 2.24-9.169-1.603-11.374-5.343-3.066-11.813-1.032-16.977 1.391-5.152 2.417-9.871 5.922-13.238 10.554-3.846 5.293-5.99 12.44-4.393 18.924.075.302.504.168.457-.126-1.636-10.2 3.26-19.583 11.538-25.431 3.854-2.723 8.388-4.928 13.023-5.889 4.888-1.013 11.85.254 13.123 6.018.698 3.157-1.824 6.92-5.337 5.678-3.302-1.168-3.456-5.048-3.308-8.006 1.268 1.689.89 4.316 2.703 5.658 1.214.898 2.818.407 3.549-.869.945-1.649.09-3.736-1.062-5.037-1.267-1.43-3.102-2.244-4.963-2.532-4.939-.762-10.49 1.61-14.704 4.007-4.22 2.398-7.907 5.75-10.363 9.964-2.543 4.363-4.341 10.372-2.802 15.382.031.102.2.089.193-.026-.149-2.57-.33-4.994.157-7.552a23.345 23.345 0 0 1 2.63-7.141c2.551-4.496 6.586-8.053 11.09-10.508a44.988 44.988 0 0 1 3.23-1.603c-10.775 5.863-17.473 19.259-14.492 31.398.045.188.37.154.345-.046-.916-7.226-.113-14.3 3.739-20.632 3.317-5.45 8.4-9.52 14.171-12.122 2.988-.878 6.1-1.17 8.733-.044 1.23.525 2.358 1.32 3.109 2.447.487.73.863 1.637.826 2.535-.064 1.54-1.382 2.804-2.885 2.007-.861-.456-1.28-1.325-1.599-2.29.39.444.883.772 1.522.882 1.114.191 2.49-.888 1.88-2.056a.196.196 0 0 0-.158-.1c-1.026-2.967-4.97-3.581-7.747-2.904a16.92 16.92 0 0 0-1.738.529c-.012-.001-.025 0-.039.005-12.88 4.368-20.276 19.72-16.883 32.654.061.232.399.132.355-.098-1.3-6.893-.531-14.016 2.996-20.165 1.148-1.999 2.528-3.785 4.088-5.387-4.928 6.275-6.545 15.18-4.23 22.812.076.253.442.147.391-.108-1.533-7.695-.967-15.578 3.932-22.023 2.061-2.713 4.729-4.965 7.801-6.448 1.193-.575 2.628-1.076 4.068-1.311l-.124.069c-5.215 1.03-9.43 6.476-11.52 10.976-2.41 5.193-3.301 11.779-1.304 17.258.08.22.411.136.356-.098-1.332-5.634-1.224-11.176 1.147-16.545 1.928-4.367 5.674-9.282 10.435-10.977l-.148.12c-4.085 2.19-6.782 7.033-8.152 11.233-1.71 5.244-1.953 11.57.257 16.714.057.132.269.037.23-.097-1.53-5.295-1.971-10.509-.348-15.858 1.141-3.764 3.278-7.819 6.421-10.455l-.168.182c-1.811 1.962-3.083 4.389-3.808 6.952-1.673 5.921-.27 12.971 3.005 18.125.147.231.475.03.362-.211-2.397-5.11-4.274-10.263-3.247-16.01a17.818 17.818 0 0 1 2.122-5.822c-2.114 5.2-3.057 11.458.983 15.918 4.17 4.606 11.801 4.662 17.36 3.154 3.099-.84 5.967-2.332 8.369-4.363-2.934 3.833-4.317 9.063-3.773 13.733.027.237.388.251.38 0-.15-5.535 1.54-10.251 4.712-14.55-2.123 4.177-3.001 9.333-1.741 13.605.06.205.403.177.386-.052-.224-3.092-.407-5.994.325-9.052.672-2.812 1.921-5.308 3.493-7.694-1.41 4.843-1.15 10.684 1.376 14.842.107.177.415.064.344-.145-.993-2.942-1.9-5.69-1.943-8.844-.039-2.819.542-5.482 1.472-8.105-.06 2.851.545 5.766 1.534 8.405.877 2.34 2.174 5.46 4.552 6.638.172.084.383-.142.219-.284-4.506-3.872-5.69-10.061-5.927-15.747.022-.052.049-.103.07-.156.022-.05.04-.103.061-.154.154 3.068 1.507 5.995 3.261 8.485 1.038 1.472 2.242 2.826 3.52 4.093 1.362 1.35 2.85 2.971 4.53 3.915.24.136.436-.165.279-.362-1.102-1.373-2.68-2.428-3.954-3.649-1.332-1.275-2.6-2.626-3.694-4.113-1.999-2.717-3.23-5.762-3.667-9.088.25-.698.461-1.407.627-2.124 1.257 7.003 6.195 13.532 12.926 16.061.217.082.363-.268.158-.375-5.225-2.724-9.503-6.862-11.508-12.512a21.114 21.114 0 0 1-1.166-5.778c.078-.937.083-1.876.012-2.808.247-3.572 1.376-7.08 3.358-10.094 3.509-5.333 9.755-8.858 16.224-7.573 6.01 1.194 10.91 7.175 9.333 13.44-1.351 5.364-8.245 10.61-13.831 8.665 5.075.737 9.65-3.635 11.302-8.378 2.24-6.437-3.175-11.888-9.52-11.864-6.053.022-11.352 4.252-13.702 9.675-2.505 5.786-1.375 12.543 1.935 17.768 3.95 6.236 11.037 10.309 18.245 11.437.35.055.512-.461.15-.546-5.56-1.29-10.861-3.489-14.937-7.614-4.058-4.107-6.528-9.933-6.04-15.752.447-5.344 3.666-10.38 8.46-12.841 5.242-2.692 13.485-1.574 15.052 5.055.782 3.304-.999 7.06-3.218 9.46-1.223 1.323-2.755 2.298-4.414 2.807 3.15-1.403 5.563-4.542 6.184-8 1.025-5.71-4.251-9.731-9.64-8.343-5.745 1.481-9.685 7.405-10.24 13.097-.59 6.072 2.777 11.22 7.553 14.656 6.182 4.447 14.495 6.884 22.063 6.929.291.001.278-.416 0-.445-6.114-.623-12.122-1.846-17.657-4.622-4.554-2.285-8.974-5.757-10.676-10.744-1.758-5.152-.037-11.129 3.75-14.935 1.997-2.006 4.692-3.573 7.593-3.556 2.682.016 5.51 1.52 6.497 4.113 1.162 3.05-.411 6.752-2.505 9.013-1.61 1.74-3.728 2.918-6.035 3.214a9.012 9.012 0 0 1-.504-.046c4.45-1.495 8.26-5.999 7.588-10.884-.345-2.518-2.43-4.092-4.934-4.006-2.741.093-5.041 2.13-6.635 4.191-3.492 4.515-4.87 11.51-.619 16.007 2.11 2.232 4.996 3.812 7.73 5.137 3.004 1.456 6.168 2.563 9.393 3.412 7.291 1.92 14.99 2.798 22.512 3.102a.242.242 0 0 0 .112-.022c3.536.661 7.097 1.167 10.656 1.437.283.021.354-.46.068-.503-10.624-1.61-21.021-3.54-31.243-6.949-4.896-1.632-10.63-3.204-14.478-6.823-1.883-1.77-3.275-4.235-3.34-6.866-.065-2.607 1.428-4.876 3.274-6.592 1.331-1.237 4.014-2.632 4.948-.215.458 1.186.136 2.64-.398 3.747-.712 1.476-1.789 2.756-3.057 3.805a8.642 8.642 0 0 0 1.21-1.854c.568-1.185 1.232-3.356-.153-4.279-1.549-1.031-3.129.965-3.781 2.142-1.088 1.963-1.347 4.292-.763 6.452.071.262.369.255.505.096.153.334.35.642.575.931a.09.09 0 0 0 .034.082c.02.016.044.03.066.045.51.62 1.158 1.145 1.856 1.594 2.092 1.346 4.523 2.295 6.798 3.282a131.552 131.552 0 0 0 11.287 4.292.132.132 0 0 0 .145.049c1.32.431 2.646.843 3.978 1.232 9.003 2.634 18.568 4.573 28.032 5.02-.06.261-.12.52-.183.78-.088.366.449.513.561.155.094-.296.18-.597.263-.902.877.035 1.752.052 2.627.06-.073 1.163-.161 2.333-.23 3.514-.017.297.464.367.522.071.225-1.134.392-2.339.494-3.58.228 0 .456.004.683.002.278-.002.272-.407 0-.427-.216-.016-.43-.035-.645-.052.493-7.253-1.313-15.668-7.709-19.333.362.147.72.304 1.076.465.012.013.024.026.042.036 3.912 2.258 6.7 5.92 8.299 10.113 1.794 4.708 1.918 9.671 2.02 14.642.005.302.444.296.464 0 .56-8.254-1.215-18.217-8.09-23.457.552.284 1.106.569 1.662.851.06.056.117.114.177.17.008.01.016.018.026.025 3.073 2.914 5.344 6.602 6.698 10.632.891 2.653 1.408 5.431 1.61 8.221.204 2.801-.09 5.543-.14 8.338-.006.278.434.349.493.067 1.157-5.583.366-12.153-1.632-17.454-1.317-3.493-3.298-6.692-5.919-9.3 1.058.621 1.927 1.568 2.77 2.45a38.257 38.257 0 0 1 7.404 11.18c.033.078.104.107.178.103a47.366 47.366 0 0 0-.453 1.696c-1.668 6.73-2.873 14.504.042 21.065.111.25.535.072.444-.188-2.313-6.645-1.616-13.47-.007-20.199 1.392-5.816 3.758-10.902 8.337-14.58-3.155 3.941-5.077 8.993-5.998 13.84-.657 3.46-.824 7.006-.639 10.52.196 3.728.623 7.673 1.742 11.245.089.284.479.162.436-.12-.551-3.629-1.363-7.162-1.582-10.843-.211-3.553-.057-7.146.61-10.646 1.028-5.397 3.276-10.123 6.528-14.387-2.174 3.257-3.518 7.373-4.346 10.553-2.15 8.26-2.445 17.867.51 25.983.099.27.503.166.436-.12-.95-4.042-1.792-8-1.917-12.169-.124-4.112.275-8.249 1.23-12.251 1.237-5.172 3.281-11.081 7.406-14.607.37-.264.73-.542 1.08-.833a12.628 12.628 0 0 1 2.11-1.184c-4.941 3.017-7.404 10.398-8.346 15.577-1.45 7.972-.47 17.52 4.057 24.432.192.294.614.04.466-.273-1.713-3.616-3.224-7.134-3.944-11.098a36.026 36.026 0 0 1-.117-12.18c1.047-6.458 4.235-15.457 11.32-17.288-3.538 2.71-6.162 6.758-7.344 11.003-1.236 4.44-1.162 9.156-.276 13.653.833 4.229 2.284 9.13 5.62 12.087.252.223.598-.12.37-.37-2.91-3.203-4.44-7.168-5.363-11.354-.968-4.382-1.099-9.013.047-13.375 1.994-7.59 8.186-13.697 16.086-14.598-2.97.424-5.723 1.829-7.946 3.894-3.125 2.904-4.569 6.823-5.212 10.965-1.18 7.6-.001 18.233 8.103 21.745.273.118.502-.24.238-.409-3.228-2.061-5.646-4.816-6.953-8.454-1.488-4.14-1.452-8.679-.755-12.973.614-3.782 1.922-7.397 4.709-10.122 1.731-1.694 3.825-2.912 6.085-3.69-.387.202-.764.418-1.128.65-7.906 5.048-9.51 16.33-3.891 23.702 2.905 3.812 7.634 6.632 12.469 6.911.315.018.395-.506.075-.56-5.087-.856-9.703-3.17-12.652-7.558-2.895-4.308-3.496-9.993-1.599-14.825 1.884-4.798 6.305-8.313 11.345-9.275 2.608-.497 5.567-.358 7.937.937 1.814.991 2.815 2.65 3.006 4.463-.672-2.057-2.49-3.647-4.854-4.074-3.713-.67-7.65.807-10.52 3.123-6.247 5.046-7.575 13.904-2.67 20.345 2.53 3.322 6.337 5.646 10.533 5.945.362.026.343-.509 0-.553-8.769-1.127-15.353-10.3-12.077-18.889 1.542-4.043 4.963-7.441 9.079-8.816 2.137-.714 4.68-1.021 6.83-.193 1.657.64 2.8 2.017 3.27 3.624-1.19-1.342-3.54-2.144-5.131-2.246-3.797-.242-7.641 1.547-9.876 4.627-4.837 6.666-1.223 16.12 6.49 18.435.346.104.484-.422.147-.537-6.343-2.181-9.994-9.099-7.246-15.449 1.325-3.062 4.002-5.292 7.234-6.1 1.606-.402 3.324-.447 4.938-.055 1.674.405 3.674 1.721 3.565 3.49a6.95 6.95 0 0 1-.154.414c-1.39-2.65-4.62-3.624-7.468-3.05-3.213.649-5.814 3.097-6.565 6.296-1.784 7.607 5.536 13.427 12.655 12.505 2.207-.285 4.355-1.16 6.372-2.07 1.628-.734 3.121-1.684 3.672-3.464.086-.278-.359-.478-.478-.202-.805 1.858-2.615 2.73-4.39 3.458-1.944.797-3.936 1.572-6.054 1.702-4.024.247-8.253-1.575-10.214-5.223-1.872-3.483-1.48-8.186 1.755-10.722a7.997 7.997 0 0 1 3.492-1.563c-2.356.603-4.162 2.536-4.943 4.842-2.185 6.446 4.13 11.903 10.219 11.584 14.179-.744 20.127-22.242 9.079-30.648-2.555-1.944-5.752-3.085-8.975-3.028-1.202.02-3.324.288-4.926 1.045.236-.449.459-.904.67-1.365 3.327-.843 6.717-.981 10.052-.05 3.456.964 6.17 2.917 8.676 5.423.189.188.549-.066.382-.295-4.026-5.516-12.534-7.847-18.909-5.532.257-.588.49-1.185.705-1.79.885-.808 3.404-.786 4.372-.873 1.487-.133 2.99-.15 4.477 0 1.51.15 3.005.451 4.44.955 1.539.54 2.789 1.416 4.205 2.18.28.15.58-.214.345-.448-1.75-1.75-4.419-2.672-6.981-3.105.423-2.997.08-6.08-.892-8.942a19.337 19.337 0 0 0-1.93-4.087c-.16-.254-.314-.516-.48-.758.325.185.667.341 1.02.466 3.493 2.929 4.534 8.725 4.303 12.935-.023.417.613.41.645 0a17.685 17.685 0 0 0-1.329-8.137c-.676-1.62-1.59-3.344-2.896-4.596.859.19 1.765.203 2.667-.009 3.38-.795 5.628-4.131 6.679-7.234 2.24-6.618-.784-14.531-7.694-16.412a27.022 27.022 0 0 0 4.982-5.524c5.316-7.855 6.138-17.93 4.93-27.105-1.036-7.86-3.743-15.737-8.709-21.997a28.333 28.333 0 0 0-3.705-3.855c4.212-1.717 6.706-7.312 8.376-11.14 2.138-4.904 3.862-10.6 3.826-15.998-.002-.322-.532-.42-.584-.079-.783 5.116-1.548 9.985-3.515 14.817-1.884 4.628-4.27 9.254-8.52 12.042a27.846 27.846 0 0 0-2.932-2.124c5.626-1.743 8.143-7.898 10.06-12.944 2.64-6.959 5.275-15.035 3.264-22.502-.096-.359-.603-.202-.545.15 1.214 7.352-.448 14.237-2.988 21.13-1.963 5.326-4.29 11.424-9.929 13.771a.222.222 0 0 0-.137.224 28.03 28.03 0 0 0-2.203-1.22c6.588-5.47 10.721-13.572 11.46-22.106.383-4.435-.065-9.237-2.06-13.267-2.004-4.048-5.714-7.017-9.825-8.735-8.025-3.353-17.9-1.6-23.175 5.658a15.557 15.557 0 0 0-2.68 12.008c.026.138.057.276.088.416-2.298-4.215-1.06-9.958 2.302-13.318a21.507 21.507 0 0 0 3.928-3.655c5.466-3.702 11.877-5.62 18.527-4.25 6.8 1.401 11.832 5.755 15.553 11.424.246.374.776.051.593-.347-2.848-6.203-9.566-10.679-16.144-11.915-5.874-1.104-12.54.158-17.467 3.708.268-.38.521-.768.765-1.162 5.721-3.72 12.45-5.984 19.336-5.06a23.397 23.397 0 0 1 9.035 3.195c2.942 1.792 5.073 4.197 7.145 6.9.23.3.683.052.513-.3-2.904-6.042-10.134-9.795-16.523-10.623-6.632-.858-13.513 1.065-18.943 4.933a24.57 24.57 0 0 0 .872-1.735c5.954-3.284 12.623-5.672 19.482-5.578 6.704.093 12.954 2.657 17.778 7.308.317.305.755-.15.477-.477-4.327-5.095-11.243-7.502-17.788-7.663-7.002-.172-13.735 2.182-19.666 5.766.223-.527.422-1.063.612-1.605 5.724-3.532 12.18-5.89 18.997-5.584 6.837.309 13.079 3.422 17.577 8.548.224.256.679-.086.476-.368-3.99-5.573-10.875-8.586-17.593-8.992-6.803-.411-13.64 1.848-19.223 5.703.143-.447.272-.9.393-1.354 2.915-2.139 5.89-4.012 9.356-5.223 3.859-1.346 7.973-1.908 12.05-1.595 3.953.304 7.838 1.456 11.349 3.293 3.555 1.86 6.407 4.403 9.192 7.25.237.243.693-.083.483-.373z" transform="matrix(-1 0 0 1 200 0)"/>
</svg>
